<?xml version="1.0" encoding="utf-8"?>
<!-- Generator: Adobe Illustrator 21.0.1, SVG Export Plug-In . SVG Version: 6.00 Build 0)  -->
<svg version="1.1" id="Layer_1" xmlns="http://www.w3.org/2000/svg" xmlns:xlink="http://www.w3.org/1999/xlink" x="0px" y="0px"
	 viewBox="0 0 2700 1896" style="enable-background:new 0 0 2700 1896;" xml:space="preserve">
<style type="text/css">
	.st0{fill:#F9F9F9;}
	.st1{fill:#66DEF2;}
	.st2{fill:#13667F;}
	.st3{fill:#08AFAF;}
	.st4{fill:url(#SVGID_1_);}
	.st5{fill:#63E5E5;}
	.st6{fill:#7F7F7F;}
	.st7{opacity:0.75;fill:url(#SVGID_2_);}
	.st8{opacity:0.75;fill:url(#SVGID_3_);}
	.st9{opacity:0.75;fill:url(#SVGID_4_);}
	.st10{opacity:0.75;fill:url(#SVGID_5_);}
	.st11{opacity:0.75;fill:url(#SVGID_6_);}
	.st12{opacity:0.75;fill:url(#SVGID_7_);}
	.st13{opacity:0.75;fill:url(#SVGID_8_);}
	.st14{opacity:0.75;fill:url(#SVGID_9_);}
	.st15{opacity:0.75;fill:url(#SVGID_10_);}
	.st16{opacity:0.75;fill:url(#SVGID_11_);}
	.st17{opacity:0.75;fill:url(#SVGID_12_);}
	.st18{opacity:0.75;fill:url(#SVGID_13_);}
	.st19{opacity:0.75;fill:url(#SVGID_14_);}
	.st20{opacity:0.75;fill:url(#SVGID_15_);}
	.st21{opacity:0.75;fill:url(#SVGID_16_);}
	.st22{opacity:0.75;fill:url(#SVGID_17_);}
	.st23{opacity:0.75;fill:url(#SVGID_18_);}
	.st24{opacity:0.75;fill:url(#SVGID_19_);}
	.st25{opacity:0.75;fill:url(#SVGID_20_);}
	.st26{opacity:0.75;fill:url(#SVGID_21_);}
	.st27{opacity:0.75;fill:url(#SVGID_22_);}
	.st28{opacity:0.75;fill:url(#SVGID_23_);}
	.st29{opacity:0.75;fill:url(#SVGID_24_);}
	.st30{opacity:0.75;fill:url(#SVGID_25_);}
	.st31{fill:#FFFFFF;}
	.st32{fill:#57D0DD;}
	.st33{opacity:0.5;fill:url(#SVGID_26_);}
	.st34{fill:url(#SVGID_27_);}
	.st35{fill:url(#SVGID_28_);}
	.st36{fill:url(#SVGID_29_);}
	.st37{fill:url(#SVGID_30_);}
	.st38{fill:url(#SVGID_31_);}
	.st39{fill:url(#SVGID_32_);}
	.st40{fill:url(#SVGID_33_);}
	.st41{fill:url(#SVGID_34_);}
	.st42{fill:url(#SVGID_35_);}
	.st43{fill:url(#SVGID_36_);}
	.st44{fill:url(#SVGID_37_);}
	.st45{fill:url(#SVGID_38_);}
	.st46{fill:url(#SVGID_39_);}
	.st47{fill:url(#SVGID_40_);}
	.st48{fill:url(#SVGID_41_);}
	.st49{fill:url(#SVGID_42_);}
	.st50{fill:url(#SVGID_43_);}
	.st51{fill:url(#SVGID_44_);}
	.st52{fill:url(#SVGID_45_);}
	.st53{fill:url(#SVGID_46_);}
	.st54{fill:url(#SVGID_47_);}
	.st55{fill:url(#SVGID_48_);}
	.st56{fill:url(#SVGID_49_);}
	.st57{fill:url(#SVGID_50_);}
	.st58{fill:url(#SVGID_51_);}
	.st59{fill:url(#SVGID_52_);}
	.st60{fill:#0091A0;}
	.st61{filter:url(#Adobe_OpacityMaskFilter);}
	.st62{filter:url(#Adobe_OpacityMaskFilter_1_);}
	.st63{mask:url(#SVGID_53_);fill:url(#SVGID_54_);}
	.st64{fill:url(#SVGID_55_);}
	.st65{filter:url(#Adobe_OpacityMaskFilter_2_);}
	.st66{filter:url(#Adobe_OpacityMaskFilter_3_);}
	.st67{mask:url(#SVGID_56_);fill:url(#SVGID_57_);}
	.st68{fill:url(#SVGID_58_);}
	.st69{filter:url(#Adobe_OpacityMaskFilter_4_);}
	.st70{filter:url(#Adobe_OpacityMaskFilter_5_);}
	.st71{mask:url(#SVGID_59_);fill:url(#SVGID_60_);}
	.st72{fill:url(#SVGID_61_);}
	.st73{opacity:0.75;fill:url(#SVGID_62_);}
	.st74{opacity:0.75;fill:url(#SVGID_63_);}
	.st75{opacity:0.75;fill:url(#SVGID_64_);}
	.st76{opacity:0.5;}
	.st77{fill:#16AAB2;}
	.st78{filter:url(#Adobe_OpacityMaskFilter_6_);}
	.st79{filter:url(#Adobe_OpacityMaskFilter_7_);}
	.st80{mask:url(#SVGID_65_);fill:url(#SVGID_66_);}
	.st81{fill:url(#SVGID_67_);}
	.st82{filter:url(#Adobe_OpacityMaskFilter_8_);}
	.st83{filter:url(#Adobe_OpacityMaskFilter_9_);}
	.st84{mask:url(#SVGID_68_);fill:url(#SVGID_69_);}
	.st85{fill:url(#SVGID_70_);}
	.st86{filter:url(#Adobe_OpacityMaskFilter_10_);}
	.st87{filter:url(#Adobe_OpacityMaskFilter_11_);}
	.st88{mask:url(#SVGID_71_);fill:url(#SVGID_72_);}
	.st89{fill:url(#SVGID_73_);}
	.st90{opacity:0.75;fill:url(#SVGID_74_);}
	.st91{opacity:0.75;fill:url(#SVGID_75_);}
	.st92{opacity:0.75;fill:url(#SVGID_76_);}
</style>
<g>
	<path class="st0" d="M2692,1843.4c0-19.3-15.8-35-35-35H51.1c-19.3,0-35,15.8-35,35l0,0c0,19.3,15.8,35,35,35h2605.9
		C2676.2,1878.4,2692,1862.6,2692,1843.4L2692,1843.4z"/>
	<g>
		<g>
			<path class="st1" d="M400.8,1803.3c20.7-29,74,2.4,74,2.4s-14.2-46.6,42.8-57c71-12.9,134,94.7,134,94.7h-214
				C398.1,1843.4,392.3,1815.2,400.8,1803.3z"/>
			<g>
				<g>
					<path class="st1" d="M2193.8,1540.5c-35.6,12.2-67.8-7.7-69.2-14.7c-1-7.4,20.4-38.5,53.2-52.1c33-13.6,68.5-3,70.8,5.1
						C2251.3,1486.3,2229.7,1528.2,2193.8,1540.5z"/>
					<path class="st1" d="M2221.9,1414.6c-19.2,10.9-40.8,4-42.6,0c-1.7-4.1,6.9-25.4,25-36.7c18.2-11.3,40.4-7.9,42.5-3.6
						C2249.1,1378.4,2241.2,1403.6,2221.9,1414.6z"/>
					<path class="st1" d="M2245,1204c-12,14.6-31.4,15.8-34.1,13.2c-2.6-2.8-2.4-22.7,8.8-37.3c11.2-14.7,30.1-18.5,33.1-15.7
						C2255.9,1166.7,2257.1,1189.3,2245,1204z"/>
					<path class="st1" d="M2264.5,1319.9c-25.5,21.7-59,16.1-62.6,10.8c-3.4-5.7,3.9-38.7,26.9-60.7c23.2-22.1,56.4-24.6,60.9-18.7
						C2294.5,1256.7,2290.2,1298,2264.5,1319.9z"/>
				</g>
				<g>
					<path class="st1" d="M2084.7,1453.1c10.8,30.9,40.7,52.8,48.1,50.6c7.3-1.6,24.8-38.2,11.5-70.2
						c-13.2-31.7-48.4-45.2-54.5-43.1C2083.5,1393.1,2074,1422.4,2084.7,1453.1z"/>
					<path class="st1" d="M2147.3,1367.7c10.2,17.5,31,25.9,35,23.7c4-2,9.5-25.3-1.7-43.1c-11.1-17.7-33.2-22.7-36.8-20.6
						C2140.3,1330.1,2137.1,1350.3,2147.3,1367.7z"/>
					<path class="st1" d="M2169.9,1186c13.6,11.2,32.9,11.4,35.3,8.3c2.5-2.9-0.2-23.4-14.6-34.5c-14.3-11.1-33.6-8.6-35.8-5.8
						C2152.7,1157.1,2156.4,1174.9,2169.9,1186z"/>
					<path class="st1" d="M2144,1281.5c19.4,22.3,51.8,30.1,57.2,25.8c5.5-3.8,7.8-39.8-13.9-62.3c-21.4-22.3-55.3-22.4-59.8-18.5
						C2123.1,1230.9,2124.7,1259.4,2144,1281.5z"/>
				</g>
				<path class="st1" d="M2215.2,1077c9.2,32.7-8,62.6-14.2,63.3c-6.3,0.7-31.2-19.7-39.4-48.2c-8-28.5,2.3-59.7,8.1-62.4
					C2175.4,1027,2206,1044.3,2215.2,1077z"/>
				<path class="st2" d="M2201.9,1332.9c0.4,0,0.9-0.1,1.3-0.4c18.9-13.6,37.3-28.8,54.6-45.1c0.9-0.8,0.9-2.2,0.1-3.1
					c-0.8-0.9-2.2-0.9-3.1-0.1c-16.8,15.9-34.6,30.6-52.9,43.8c6.5-35.7,9.4-72.1,8.7-108.6c0.1,0,0.2,0,0.3,0
					c0.6,0,1.2-0.2,1.6-0.7c9-9.9,17.7-20.5,26-31.3c0.7-1,0.6-2.3-0.4-3.1c-1-0.7-2.3-0.6-3.1,0.4c-7.8,10.2-16.1,20.1-24.6,29.6
					c-1.4-47-8.8-94.2-22.8-140.4c-0.4-1.2-1.6-1.8-2.7-1.5c-1.2,0.4-1.8,1.6-1.5,2.7c11.6,38.2,18.7,77.1,21.5,116
					c-9.2-8.3-18.8-16.4-28.4-23.9c-1-0.7-2.3-0.6-3.1,0.4c-0.7,1-0.6,2.3,0.4,3.1c10.2,7.9,20.3,16.4,30,25.2
					c0.4,0.4,1,0.6,1.5,0.6h0c2.3,36,0.9,72-3.9,107.4c-12.9-17.6-26.9-34.4-41.6-49.7c-0.8-0.9-2.2-0.9-3.1-0.1
					c-0.9,0.8-0.9,2.2-0.1,3.1c15.2,15.8,29.5,33.1,42.8,51.3c0.3,0.4,0.7,0.6,1.2,0.8c-3.9,26.6-9.8,52.9-17.6,78.6
					c-6.5-12.8-13.6-25.3-21.1-37.3c-0.6-1-2-1.3-3-0.7c-1,0.6-1.3,2-0.7,3c7.9,12.6,15.4,25.9,22.2,39.4c0.2,0.5,0.6,0.7,1,1
					c-11.7,37.2-27.5,73.2-47,107.3c-5.8-23.7-13.3-46.9-22.4-68.8c-0.5-1.1-1.8-1.7-2.9-1.2c-1.1,0.5-1.7,1.8-1.2,2.9
					c9.3,22.5,17,46.3,22.8,70.7c0.1,0.5,0.4,0.9,0.8,1.2c-27.3,46.5-61.8,89.3-102.9,126.4c-0.9,0.8-1,2.2-0.2,3.1
					c0.4,0.5,1,0.7,1.6,0.7c0.5,0,1.1-0.2,1.5-0.6c35.6-32.1,66.2-68.4,91.6-107.7c0.4,0.4,0.9,0.6,1.5,0.6c0.2,0,0.3,0,0.5-0.1
					c25.3-6.2,50.7-14.5,75.4-24.6c1.1-0.5,1.7-1.7,1.2-2.9c-0.5-1.1-1.7-1.7-2.9-1.2c-24,9.8-48.5,17.8-73.1,23.9
					c21.3-33.7,38.9-69.5,52.3-106.7c0.4,0.2,0.8,0.4,1.2,0.4c0.3,0,0.7-0.1,1-0.2c13.9-7,27.8-14.7,41.3-23c1-0.6,1.4-2,0.7-3
					c-0.6-1-2-1.4-3-0.7c-12.9,7.9-26.1,15.4-39.5,22.1c9.1-25.8,16.2-52.3,21.3-79.2C2201.3,1332.8,2201.6,1332.9,2201.9,1332.9z"
					/>
			</g>
			<g>
				<path class="st1" d="M504.1,1718.9c15.3,5.7,30.3-2,31.2-5.2c0.7-3.2-8.1-17.8-22.7-23.8c-14.7-6.1-30.5-0.9-31.6,2.5
					C479.8,1695.8,488.7,1713.2,504.1,1718.9z"/>
				<path class="st1" d="M461.6,1567.6c10.5,9.2,24.9,7.8,26.6,5.5c1.6-2.4-1-16.9-11-26.2c-10-9.4-24.3-9.9-26.1-7.5
					C449.1,1541.7,451,1558.4,461.6,1567.6z"/>
				<path class="st1" d="M461.4,1654.8c21.3,12.8,45.1,4.6,47.1,0.3c1.8-4.6-7.5-27.8-27.1-41.2c-19.7-13.4-44.3-11.1-46.9-6.3
					C431.8,1612.2,439.9,1641.9,461.4,1654.8z"/>
				<path class="st1" d="M553,1675.6c-5.3,14-19.5,22.7-22.7,21.6c-3.2-1-10-17.4-4-31.7c6-14.3,21.5-20.7,24.4-19.6
					C553.6,1647.2,558.3,1661.6,553,1675.6z"/>
				<path class="st1" d="M514.3,1545.3c-8.6,9.8-22.7,12.3-24.8,10.4c-2.2-1.8-2.7-17.1,6.5-27c9.1-9.8,23.5-10.4,25.5-8.6
					C523.4,1522.1,522.9,1535.6,514.3,1545.3z"/>
				<path class="st1" d="M544.9,1612.1c-11.5,18.7-34.3,28.3-38.7,25.9c-4.5-2.1-10.5-28.2,2.6-47.3c13-19,37.8-23.1,41.5-20.8
					C554,1572.5,556.4,1593.5,544.9,1612.1z"/>
				<path class="st1" d="M467.9,1471.1c-2.8,25,13.5,44.8,18.1,44.6c4.7-0.2,20.5-18.2,22.9-40c2.4-21.8-9-43.4-13.5-44.7
					C491,1429.7,470.7,1446.1,467.9,1471.1z"/>
				<path class="st2" d="M579.4,1771.6c-18.6-22.6-34.5-47.1-47.6-72.9c0.3-0.3,0.5-0.5,0.6-0.9c3.3-10.7,7.2-21.3,11.4-31.5
					c0.5-1.1-0.1-2.4-1.2-2.9c-1.1-0.5-2.4,0.1-2.9,1.2c-3.9,9.4-7.4,19.1-10.6,29c-8.5-17.4-15.8-35.4-21.7-53.9
					c0.3-0.2,0.6-0.5,0.7-0.8c7.4-14.9,15.9-29.3,25-42.7c0.7-1,0.4-2.4-0.6-3.1c-1-0.7-2.4-0.4-3.1,0.6
					c-8.7,12.7-16.7,26.3-23.8,40.4c-7.6-24.9-12.8-50.5-15.5-76.4c0.4-0.1,0.7-0.3,0.9-0.7c6-7.6,12.3-15,18.8-22.1
					c0.8-0.9,0.8-2.3-0.1-3.1c-0.9-0.8-2.3-0.8-3.1,0.1c-5.9,6.3-11.6,13-17,19.9c-2.5-28.5-2-57.3,1.8-86c0.2-1.2-0.7-2.3-1.9-2.5
					c-1.2-0.2-2.3,0.7-2.5,1.9c-4.5,34.8-4.4,69.8,0.1,104.1c-6.9-5.6-13.8-11.5-20.3-17.6c-0.9-0.8-2.3-0.8-3.1,0.1
					c-0.8,0.9-0.8,2.3,0.1,3.1c7.4,6.9,15.1,13.5,22.9,19.7c0.4,0.3,0.8,0.4,1.3,0.5c3.8,26.1,10.1,51.7,18.9,76.5
					c-14.5-7.3-28.7-15.6-42.4-24.8c-1-0.7-2.4-0.4-3.1,0.6c-0.7,1-0.4,2.4,0.6,3.1c14.7,9.9,30,18.8,45.5,26.4
					c0.3,0.2,0.6,0.2,1,0.2c0.1,0,0.2-0.1,0.3-0.1c6.8,18.4,14.9,36.2,24.2,53.5c-10.1-3.2-20.1-6.8-29.9-10.8
					c-1.1-0.5-2.4,0.1-2.9,1.2c-0.5,1.1,0.1,2.4,1.2,2.9c10.8,4.4,21.9,8.4,33.1,11.8c0.2,0.1,0.4,0.1,0.6,0.1
					c0.2,0,0.4-0.1,0.6-0.2c11.6,20.6,25,40.2,40.1,58.6c0.4,0.5,1.1,0.8,1.7,0.8c0.5,0,1-0.2,1.4-0.5
					C580,1773.9,580.2,1772.5,579.4,1771.6z"/>
			</g>
			<g>
				<path class="st1" d="M2433.8,1791.1c-27-37.8-96.4,3.1-96.4,3.1s18.5-60.8-55.7-74.2c-92.5-16.8-174.6,123.4-174.6,123.4h278.9
					C2437.3,1843.4,2444.8,1806.6,2433.8,1791.1z"/>
				<path class="st3" d="M2279.8,1712.5c-37.4-44.1-93,1.1-93,1.1s49-115.2-61.5-129.6c-133-17.3-202.2,259.3-202.2,259.3h263.4
					C2278.7,1843.4,2310.2,1748.4,2279.8,1712.5z"/>
				<linearGradient id="SVGID_1_" gradientUnits="userSpaceOnUse" x1="2156.8101" y1="1708.7521" x2="1789.7092" y2="2068.5967">
					<stop  offset="0" style="stop-color:#FFFFFF"/>
					<stop  offset="1" style="stop-color:#000000"/>
				</linearGradient>
				<path class="st4" d="M2279.8,1712.5c-37.4-44.1-93,1.1-93,1.1s49-115.2-61.5-129.6c-133-17.3-202.2,259.3-202.2,259.3h263.4
					C2278.7,1843.4,2310.2,1748.4,2279.8,1712.5z"/>
			</g>
			<g>
				
					<image style="overflow:visible;opacity:0.5;" width="1308" height="1108" xlink:href="D98EB90F.png"  transform="matrix(1 0 0 1 803 726)">
				</image>
				<path class="st5" d="M2066.7,1758.4c0,17.2-14,31.2-31.2,31.2h-1157c-17.2,0-31.2-14-31.2-31.2V801.1c0-17.2,14-31.2,31.2-31.2
					h1157c17.2,0,31.2,14,31.2,31.2V1758.4z"/>
				<path class="st2" d="M2035.5,769.9h-1157c-17.2,0-31.2,14-31.2,31.2v132h1219.4v-132C2066.7,784,2052.7,769.9,2035.5,769.9z"/>
				<path class="st6" d="M1656.9,1214.6c0,7.2,5.9,13.1,13.1,13.1h138.8c7.2,0,13.1-5.9,13.1-13.1v-119c0-7.2-5.9-13.1-13.1-13.1
					H1670c-7.2,0-13.1,5.9-13.1,13.1V1214.6z"/>
				<path class="st6" d="M1468.6,1214.6c0,7.2,5.9,13.1,13.1,13.1h138.8c7.2,0,13.1-5.9,13.1-13.1v-119c0-7.2-5.9-13.1-13.1-13.1
					h-138.8c-7.2,0-13.1,5.9-13.1,13.1V1214.6z"/>
				<path class="st6" d="M1845.2,1551.5c0,7.2,5.9,13.1,13.1,13.1h138.8c7.2,0,13.1-5.9,13.1-13.1v-119c0-7.2-5.9-13.1-13.1-13.1
					h-138.8c-7.2,0-13.1,5.9-13.1,13.1V1551.5z"/>
				<path class="st6" d="M1845.2,1383.1c0,7.2,5.9,13.1,13.1,13.1h138.8c7.2,0,13.1-5.9,13.1-13.1v-119c0-7.2-5.9-13.1-13.1-13.1
					h-138.8c-7.2,0-13.1,5.9-13.1,13.1V1383.1z"/>
				<path class="st6" d="M1092.1,1720c0,7.2,5.9,13.1,13.1,13.1H1244c7.2,0,13.1-5.9,13.1-13.1v-119c0-7.2-5.9-13.1-13.1-13.1
					h-138.8c-7.2,0-13.1,5.9-13.1,13.1V1720z"/>
				<path class="st6" d="M1858.2,1082.5c-7.2,0-13.1,5.9-13.1,13.1v119c0,7.2,5.9,13.1,13.1,13.1h138.8c7.2,0,13.1-5.9,13.1-13.1
					v-119c0-7.2-5.9-13.1-13.1-13.1H1858.2z"/>
				<path class="st6" d="M903.9,1720c0,7.2,5.9,13.1,13.1,13.1h138.8c7.2,0,13.1-5.9,13.1-13.1v-119c0-7.2-5.9-13.1-13.1-13.1H916.9
					c-7.2,0-13.1,5.9-13.1,13.1V1720z"/>
				<path class="st6" d="M1092.1,1383.1c0,7.2,5.9,13.1,13.1,13.1H1244c7.2,0,13.1-5.9,13.1-13.1v-119c0-7.2-5.9-13.1-13.1-13.1
					h-138.8c-7.2,0-13.1,5.9-13.1,13.1V1383.1z"/>
				<path class="st6" d="M1092.1,1551.5c0,7.2,5.9,13.1,13.1,13.1H1244c7.2,0,13.1-5.9,13.1-13.1v-119c0-7.2-5.9-13.1-13.1-13.1
					h-138.8c-7.2,0-13.1,5.9-13.1,13.1V1551.5z"/>
				<path class="st6" d="M903.9,1551.5c0,7.2,5.9,13.1,13.1,13.1h138.8c7.2,0,13.1-5.9,13.1-13.1v-119c0-7.2-5.9-13.1-13.1-13.1
					H916.9c-7.2,0-13.1,5.9-13.1,13.1V1551.5z"/>
				<path class="st6" d="M903.9,1383.1c0,7.2,5.9,13.1,13.1,13.1h138.8c7.2,0,13.1-5.9,13.1-13.1v-119c0-7.2-5.9-13.1-13.1-13.1
					H916.9c-7.2,0-13.1,5.9-13.1,13.1V1383.1z"/>
				<path class="st2" d="M1280.4,1214.6c0,7.2,5.9,13.1,13.1,13.1h138.8c7.2,0,13.1-5.9,13.1-13.1v-119c0-7.2-5.9-13.1-13.1-13.1
					h-138.8c-7.2,0-13.1,5.9-13.1,13.1V1214.6z"/>
				<path class="st2" d="M1092.1,1214.6c0,7.2,5.9,13.1,13.1,13.1H1244c7.2,0,13.1-5.9,13.1-13.1v-119c0-7.2-5.9-13.1-13.1-13.1
					h-138.8c-7.2,0-13.1,5.9-13.1,13.1V1214.6z"/>
				<path class="st2" d="M903.9,1214.6c0,7.2,5.9,13.1,13.1,13.1h138.8c7.2,0,13.1-5.9,13.1-13.1v-119c0-7.2-5.9-13.1-13.1-13.1
					H916.9c-7.2,0-13.1,5.9-13.1,13.1V1214.6z"/>
				<g>
					<linearGradient id="SVGID_2_" gradientUnits="userSpaceOnUse" x1="919.8623" y1="1289.2766" x2="919.8623" y2="990.7654">
						<stop  offset="0" style="stop-color:#5E5E5E"/>
						<stop  offset="1" style="stop-color:#FFFFFF"/>
					</linearGradient>
					<path class="st7" d="M922.8,1214.6v-119c0-7.2,5.9-13.1,13.1-13.1h-19c-7.2,0-13.1,5.9-13.1,13.1v119c0,7.2,5.9,13.1,13.1,13.1
						h19C928.7,1227.7,922.8,1221.8,922.8,1214.6z"/>
					<linearGradient id="SVGID_3_" gradientUnits="userSpaceOnUse" x1="1108.1277" y1="1289.2766" x2="1108.1277" y2="990.7654">
						<stop  offset="0" style="stop-color:#5E5E5E"/>
						<stop  offset="1" style="stop-color:#FFFFFF"/>
					</linearGradient>
					<path class="st8" d="M1111.1,1214.6v-119c0-7.2,5.9-13.1,13.1-13.1h-19c-7.2,0-13.1,5.9-13.1,13.1v119
						c0,7.2,5.9,13.1,13.1,13.1h19C1117,1227.7,1111.1,1221.8,1111.1,1214.6z"/>
					<linearGradient id="SVGID_4_" gradientUnits="userSpaceOnUse" x1="1296.3932" y1="1289.2766" x2="1296.3932" y2="990.7654">
						<stop  offset="0" style="stop-color:#5E5E5E"/>
						<stop  offset="1" style="stop-color:#FFFFFF"/>
					</linearGradient>
					<path class="st9" d="M1299.3,1214.6v-119c0-7.2,5.9-13.1,13.1-13.1h-19c-7.2,0-13.1,5.9-13.1,13.1v119
						c0,7.2,5.9,13.1,13.1,13.1h19C1305.2,1227.7,1299.3,1221.8,1299.3,1214.6z"/>
					<linearGradient id="SVGID_5_" gradientUnits="userSpaceOnUse" x1="1484.6571" y1="1289.2766" x2="1484.6571" y2="990.7654">
						<stop  offset="0" style="stop-color:#5E5E5E"/>
						<stop  offset="1" style="stop-color:#FFFFFF"/>
					</linearGradient>
					<path class="st10" d="M1487.6,1214.6v-119c0-7.2,5.9-13.1,13.1-13.1h-19c-7.2,0-13.1,5.9-13.1,13.1v119
						c0,7.2,5.9,13.1,13.1,13.1h19C1493.5,1227.7,1487.6,1221.8,1487.6,1214.6z"/>
					<linearGradient id="SVGID_6_" gradientUnits="userSpaceOnUse" x1="1672.9236" y1="1289.2766" x2="1672.9236" y2="990.7654">
						<stop  offset="0" style="stop-color:#5E5E5E"/>
						<stop  offset="1" style="stop-color:#FFFFFF"/>
					</linearGradient>
					<path class="st11" d="M1675.9,1214.6v-119c0-7.2,5.9-13.1,13.1-13.1h-19c-7.2,0-13.1,5.9-13.1,13.1v119
						c0,7.2,5.9,13.1,13.1,13.1h19C1681.8,1227.7,1675.9,1221.8,1675.9,1214.6z"/>
					<linearGradient id="SVGID_7_" gradientUnits="userSpaceOnUse" x1="1861.1873" y1="1289.2766" x2="1861.1873" y2="990.7654">
						<stop  offset="0" style="stop-color:#5E5E5E"/>
						<stop  offset="1" style="stop-color:#FFFFFF"/>
					</linearGradient>
					<path class="st12" d="M1864.1,1214.6v-119c0-7.2,5.9-13.1,13.1-13.1h-19c-7.2,0-13.1,5.9-13.1,13.1v119
						c0,7.2,5.9,13.1,13.1,13.1h19C1870,1227.7,1864.1,1221.8,1864.1,1214.6z"/>
				</g>
				<g>
					<linearGradient id="SVGID_8_" gradientUnits="userSpaceOnUse" x1="919.8623" y1="1457.7341" x2="919.8623" y2="1159.2252">
						<stop  offset="0" style="stop-color:#5E5E5E"/>
						<stop  offset="1" style="stop-color:#FFFFFF"/>
					</linearGradient>
					<path class="st13" d="M922.8,1383.1v-119c0-7.2,5.9-13.1,13.1-13.1h-19c-7.2,0-13.1,5.9-13.1,13.1v119
						c0,7.2,5.9,13.1,13.1,13.1h19C928.7,1396.1,922.8,1390.2,922.8,1383.1z"/>
					<linearGradient id="SVGID_9_" gradientUnits="userSpaceOnUse" x1="1108.1277" y1="1457.7341" x2="1108.1277" y2="1159.2252">
						<stop  offset="0" style="stop-color:#5E5E5E"/>
						<stop  offset="1" style="stop-color:#FFFFFF"/>
					</linearGradient>
					<path class="st14" d="M1111.1,1383.1v-119c0-7.2,5.9-13.1,13.1-13.1h-19c-7.2,0-13.1,5.9-13.1,13.1v119
						c0,7.2,5.9,13.1,13.1,13.1h19C1117,1396.1,1111.1,1390.2,1111.1,1383.1z"/>
					<linearGradient id="SVGID_10_" gradientUnits="userSpaceOnUse" x1="1296.3932" y1="1457.7341" x2="1296.3932" y2="1159.2252">
						<stop  offset="0" style="stop-color:#5E5E5E"/>
						<stop  offset="1" style="stop-color:#FFFFFF"/>
					</linearGradient>
					<path class="st15" d="M1299.3,1383.1v-119c0-7.2,5.9-13.1,13.1-13.1h-19c-7.2,0-13.1,5.9-13.1,13.1v119
						c0,7.2,5.9,13.1,13.1,13.1h19C1305.2,1396.1,1299.3,1390.2,1299.3,1383.1z"/>
					<linearGradient id="SVGID_11_" gradientUnits="userSpaceOnUse" x1="1484.6571" y1="1457.7341" x2="1484.6571" y2="1159.2252">
						<stop  offset="0" style="stop-color:#5E5E5E"/>
						<stop  offset="1" style="stop-color:#FFFFFF"/>
					</linearGradient>
					<path class="st16" d="M1487.6,1383.1v-119c0-7.2,5.9-13.1,13.1-13.1h-19c-7.2,0-13.1,5.9-13.1,13.1v119
						c0,7.2,5.9,13.1,13.1,13.1h19C1493.5,1396.1,1487.6,1390.2,1487.6,1383.1z"/>
					<linearGradient id="SVGID_12_" gradientUnits="userSpaceOnUse" x1="1672.9236" y1="1457.7341" x2="1672.9236" y2="1159.2252">
						<stop  offset="0" style="stop-color:#5E5E5E"/>
						<stop  offset="1" style="stop-color:#FFFFFF"/>
					</linearGradient>
					<path class="st17" d="M1675.9,1383.1v-119c0-7.2,5.9-13.1,13.1-13.1h-19c-7.2,0-13.1,5.9-13.1,13.1v119
						c0,7.2,5.9,13.1,13.1,13.1h19C1681.8,1396.1,1675.9,1390.2,1675.9,1383.1z"/>
					<linearGradient id="SVGID_13_" gradientUnits="userSpaceOnUse" x1="1861.1873" y1="1457.7341" x2="1861.1873" y2="1159.2252">
						<stop  offset="0" style="stop-color:#5E5E5E"/>
						<stop  offset="1" style="stop-color:#FFFFFF"/>
					</linearGradient>
					<path class="st18" d="M1864.1,1383.1v-119c0-7.2,5.9-13.1,13.1-13.1h-19c-7.2,0-13.1,5.9-13.1,13.1v119
						c0,7.2,5.9,13.1,13.1,13.1h19C1870,1396.1,1864.1,1390.2,1864.1,1383.1z"/>
				</g>
				<g>
					<linearGradient id="SVGID_14_" gradientUnits="userSpaceOnUse" x1="919.8623" y1="1626.2001" x2="919.8623" y2="1327.6797">
						<stop  offset="0" style="stop-color:#5E5E5E"/>
						<stop  offset="1" style="stop-color:#FFFFFF"/>
					</linearGradient>
					<path class="st19" d="M922.8,1551.5v-119c0-7.2,5.9-13.1,13.1-13.1h-19c-7.2,0-13.1,5.9-13.1,13.1v119
						c0,7.2,5.9,13.1,13.1,13.1h19C928.7,1564.6,922.8,1558.7,922.8,1551.5z"/>
					<linearGradient id="SVGID_15_" gradientUnits="userSpaceOnUse" x1="1108.1277" y1="1626.2001" x2="1108.1277" y2="1327.6797">
						<stop  offset="0" style="stop-color:#5E5E5E"/>
						<stop  offset="1" style="stop-color:#FFFFFF"/>
					</linearGradient>
					<path class="st20" d="M1111.1,1551.5v-119c0-7.2,5.9-13.1,13.1-13.1h-19c-7.2,0-13.1,5.9-13.1,13.1v119
						c0,7.2,5.9,13.1,13.1,13.1h19C1117,1564.6,1111.1,1558.7,1111.1,1551.5z"/>
					<linearGradient id="SVGID_16_" gradientUnits="userSpaceOnUse" x1="1296.3932" y1="1626.2001" x2="1296.3932" y2="1327.6797">
						<stop  offset="0" style="stop-color:#5E5E5E"/>
						<stop  offset="1" style="stop-color:#FFFFFF"/>
					</linearGradient>
					<path class="st21" d="M1299.3,1551.5v-119c0-7.2,5.9-13.1,13.1-13.1h-19c-7.2,0-13.1,5.9-13.1,13.1v119
						c0,7.2,5.9,13.1,13.1,13.1h19C1305.2,1564.6,1299.3,1558.7,1299.3,1551.5z"/>
					<linearGradient id="SVGID_17_" gradientUnits="userSpaceOnUse" x1="1484.6571" y1="1626.2001" x2="1484.6571" y2="1327.6797">
						<stop  offset="0" style="stop-color:#5E5E5E"/>
						<stop  offset="1" style="stop-color:#FFFFFF"/>
					</linearGradient>
					<path class="st22" d="M1487.6,1551.5v-119c0-7.2,5.9-13.1,13.1-13.1h-19c-7.2,0-13.1,5.9-13.1,13.1v119
						c0,7.2,5.9,13.1,13.1,13.1h19C1493.5,1564.6,1487.6,1558.7,1487.6,1551.5z"/>
					<linearGradient id="SVGID_18_" gradientUnits="userSpaceOnUse" x1="1672.9236" y1="1626.2001" x2="1672.9236" y2="1327.6797">
						<stop  offset="0" style="stop-color:#5E5E5E"/>
						<stop  offset="1" style="stop-color:#FFFFFF"/>
					</linearGradient>
					<path class="st23" d="M1675.9,1551.5v-119c0-7.2,5.9-13.1,13.1-13.1h-19c-7.2,0-13.1,5.9-13.1,13.1v119
						c0,7.2,5.9,13.1,13.1,13.1h19C1681.8,1564.6,1675.9,1558.7,1675.9,1551.5z"/>
					<linearGradient id="SVGID_19_" gradientUnits="userSpaceOnUse" x1="1861.1873" y1="1626.2001" x2="1861.1873" y2="1327.6797">
						<stop  offset="0" style="stop-color:#5E5E5E"/>
						<stop  offset="1" style="stop-color:#FFFFFF"/>
					</linearGradient>
					<path class="st24" d="M1864.1,1551.5v-119c0-7.2,5.9-13.1,13.1-13.1h-19c-7.2,0-13.1,5.9-13.1,13.1v119
						c0,7.2,5.9,13.1,13.1,13.1h19C1870,1564.6,1864.1,1558.7,1864.1,1551.5z"/>
				</g>
				<g>
					<linearGradient id="SVGID_20_" gradientUnits="userSpaceOnUse" x1="919.8623" y1="1794.6522" x2="919.8623" y2="1496.1434">
						<stop  offset="0" style="stop-color:#5E5E5E"/>
						<stop  offset="1" style="stop-color:#FFFFFF"/>
					</linearGradient>
					<path class="st25" d="M922.8,1720v-119c0-7.2,5.9-13.1,13.1-13.1h-19c-7.2,0-13.1,5.9-13.1,13.1v119c0,7.2,5.9,13.1,13.1,13.1
						h19C928.7,1733,922.8,1727.2,922.8,1720z"/>
					<linearGradient id="SVGID_21_" gradientUnits="userSpaceOnUse" x1="1108.1277" y1="1794.6522" x2="1108.1277" y2="1496.1434">
						<stop  offset="0" style="stop-color:#5E5E5E"/>
						<stop  offset="1" style="stop-color:#FFFFFF"/>
					</linearGradient>
					<path class="st26" d="M1111.1,1720v-119c0-7.2,5.9-13.1,13.1-13.1h-19c-7.2,0-13.1,5.9-13.1,13.1v119c0,7.2,5.9,13.1,13.1,13.1
						h19C1117,1733,1111.1,1727.2,1111.1,1720z"/>
					<linearGradient id="SVGID_22_" gradientUnits="userSpaceOnUse" x1="1296.3932" y1="1794.6522" x2="1296.3932" y2="1496.1434">
						<stop  offset="0" style="stop-color:#5E5E5E"/>
						<stop  offset="1" style="stop-color:#FFFFFF"/>
					</linearGradient>
					<path class="st27" d="M1299.3,1720v-119c0-7.2,5.9-13.1,13.1-13.1h-19c-7.2,0-13.1,5.9-13.1,13.1v119c0,7.2,5.9,13.1,13.1,13.1
						h19C1305.2,1733,1299.3,1727.2,1299.3,1720z"/>
					<linearGradient id="SVGID_23_" gradientUnits="userSpaceOnUse" x1="1484.6571" y1="1794.6522" x2="1484.6571" y2="1496.1434">
						<stop  offset="0" style="stop-color:#5E5E5E"/>
						<stop  offset="1" style="stop-color:#FFFFFF"/>
					</linearGradient>
					<path class="st28" d="M1487.6,1720v-119c0-7.2,5.9-13.1,13.1-13.1h-19c-7.2,0-13.1,5.9-13.1,13.1v119c0,7.2,5.9,13.1,13.1,13.1
						h19C1493.5,1733,1487.6,1727.2,1487.6,1720z"/>
					<linearGradient id="SVGID_24_" gradientUnits="userSpaceOnUse" x1="1672.9236" y1="1794.6522" x2="1672.9236" y2="1496.1434">
						<stop  offset="0" style="stop-color:#5E5E5E"/>
						<stop  offset="1" style="stop-color:#FFFFFF"/>
					</linearGradient>
					<path class="st29" d="M1675.9,1720v-119c0-7.2,5.9-13.1,13.1-13.1h-19c-7.2,0-13.1,5.9-13.1,13.1v119c0,7.2,5.9,13.1,13.1,13.1
						h19C1681.8,1733,1675.9,1727.2,1675.9,1720z"/>
					<linearGradient id="SVGID_25_" gradientUnits="userSpaceOnUse" x1="1861.1873" y1="1794.6522" x2="1861.1873" y2="1496.1434">
						<stop  offset="0" style="stop-color:#5E5E5E"/>
						<stop  offset="1" style="stop-color:#FFFFFF"/>
					</linearGradient>
					<path class="st30" d="M1864.1,1720v-119c0-7.2,5.9-13.1,13.1-13.1h-19c-7.2,0-13.1,5.9-13.1,13.1v119c0,7.2,5.9,13.1,13.1,13.1
						h19C1870,1733,1864.1,1727.2,1864.1,1720z"/>
				</g>
				<path class="st2" d="M1468.6,1720c0,7.2,5.9,13.1,13.1,13.1h138.8c7.2,0,13.1-5.9,13.1-13.1v-119c0-7.2-5.9-13.1-13.1-13.1
					h-138.8c-7.2,0-13.1,5.9-13.1,13.1V1720z"/>
				<path class="st2" d="M1656.9,1720c0,7.2,5.9,13.1,13.1,13.1h138.8c7.2,0,13.1-5.9,13.1-13.1v-119c0-7.2-5.9-13.1-13.1-13.1H1670
					c-7.2,0-13.1,5.9-13.1,13.1V1720z"/>
				<path class="st2" d="M1280.4,1720c0,7.2,5.9,13.1,13.1,13.1h138.8c7.2,0,13.1-5.9,13.1-13.1v-119c0-7.2-5.9-13.1-13.1-13.1
					h-138.8c-7.2,0-13.1,5.9-13.1,13.1V1720z"/>
				<path class="st2" d="M1845.2,1720c0,7.2,5.9,13.1,13.1,13.1h138.8c7.2,0,13.1-5.9,13.1-13.1v-119c0-7.2-5.9-13.1-13.1-13.1
					h-138.8c-7.2,0-13.1,5.9-13.1,13.1V1720z"/>
				<path class="st6" d="M1656.9,1551.5c0,7.2,5.9,13.1,13.1,13.1h138.8c7.2,0,13.1-5.9,13.1-13.1v-119c0-7.2-5.9-13.1-13.1-13.1
					H1670c-7.2,0-13.1,5.9-13.1,13.1V1551.5z"/>
				<path class="st6" d="M1468.6,1383.1c0,7.2,5.9,13.1,13.1,13.1h138.8c7.2,0,13.1-5.9,13.1-13.1v-119c0-7.2-5.9-13.1-13.1-13.1
					h-138.8c-7.2,0-13.1,5.9-13.1,13.1V1383.1z"/>
				<path class="st6" d="M1656.9,1383.1c0,7.2,5.9,13.1,13.1,13.1h138.8c7.2,0,13.1-5.9,13.1-13.1v-119c0-7.2-5.9-13.1-13.1-13.1
					H1670c-7.2,0-13.1,5.9-13.1,13.1V1383.1z"/>
				<path class="st6" d="M1280.4,1551.5c0,7.2,5.9,13.1,13.1,13.1h138.8c7.2,0,13.1-5.9,13.1-13.1v-119c0-7.2-5.9-13.1-13.1-13.1
					h-138.8c-7.2,0-13.1,5.9-13.1,13.1V1551.5z"/>
				<path class="st6" d="M1468.6,1551.5c0,7.2,5.9,13.1,13.1,13.1h138.8c7.2,0,13.1-5.9,13.1-13.1v-119c0-7.2-5.9-13.1-13.1-13.1
					h-138.8c-7.2,0-13.1,5.9-13.1,13.1V1551.5z"/>
				<path class="st6" d="M1280.4,1383.1c0,7.2,5.9,13.1,13.1,13.1h138.8c7.2,0,13.1-5.9,13.1-13.1v-119c0-7.2-5.9-13.1-13.1-13.1
					h-138.8c-7.2,0-13.1,5.9-13.1,13.1V1383.1z"/>
				<g>
					<path class="st31" d="M1674.5,956.8h-434.9c-28.1,0-51,22.9-51,51c0,28.1,22.8,50.9,51,50.9h434.9c28.2,0,51-22.8,51-50.9
						C1725.4,979.7,1702.7,956.8,1674.5,956.8z"/>
					<g>
						
							<image style="overflow:visible;opacity:0.5;" width="129" height="104" xlink:href="D98EB90D.png"  transform="matrix(1 0 0 1 1597 956)">
						</image>
						<path class="st32" d="M1648.4,1047.7c-22,0-39.8-17.9-39.8-39.8c0-22,17.9-39.9,39.8-39.9h26c22,0,39.9,17.9,39.9,39.9
							c0,21.9-17.9,39.8-39.9,39.8H1648.4z"/>
						<path class="st31" d="M1686.5,1028.9l-10.8-10.8c6.8-8.8,6.3-21.5-1.8-29.6c-4.2-4.2-9.9-6.6-15.8-6.6c-6,0-11.6,2.3-15.9,6.6
							c-4.2,4.2-6.6,9.9-6.6,15.9c0,6,2.3,11.6,6.6,15.8c4.2,4.2,9.9,6.6,15.9,6.6c5.1,0,9.8-1.7,13.8-4.8l10.8,10.8
							c0.5,0.5,1.2,0.8,2,0.8c0.7,0,1.4-0.3,2-0.8C1687.6,1031.8,1687.6,1030,1686.5,1028.9z M1646.1,1016.3
							c-3.2-3.2-4.9-7.4-4.9-11.9c0-4.5,1.8-8.8,4.9-11.9c3.2-3.2,7.4-5,12-5c4.5,0,8.7,1.8,11.9,4.9c6.6,6.6,6.6,17.3,0,23.9
							c-3.2,3.2-7.4,5-11.9,5C1653.5,1021.3,1649.3,1019.5,1646.1,1016.3z"/>
					</g>
				</g>
				<linearGradient id="SVGID_26_" gradientUnits="userSpaceOnUse" x1="1456.9867" y1="825.4301" x2="1456.9867" y2="1262.8395">
					<stop  offset="0" style="stop-color:#FFFFFF"/>
					<stop  offset="1" style="stop-color:#000000"/>
				</linearGradient>
				<rect x="847.3" y="919.8" class="st33" width="1219.4" height="13.4"/>
				<g>
					<linearGradient id="SVGID_27_" gradientUnits="userSpaceOnUse" x1="913.7905" y1="782.0423" x2="913.7905" y2="960.7833">
						<stop  offset="0" style="stop-color:#FFFFFF"/>
						<stop  offset="1" style="stop-color:#000000"/>
					</linearGradient>
					<path class="st34" d="M932,826.1c0,10.1-8.2,18.2-18.2,18.2c-10.1,0-18.2-8.2-18.2-18.2c0-10.1,8.2-18.2,18.2-18.2
						C923.8,807.8,932,816,932,826.1z"/>
					<linearGradient id="SVGID_28_" gradientUnits="userSpaceOnUse" x1="921.5365" y1="794.2405" x2="921.5365" y2="896.0695">
						<stop  offset="0" style="stop-color:#FFFFFF"/>
						<stop  offset="1" style="stop-color:#000000"/>
					</linearGradient>
					<path class="st35" d="M913.8,807.8c-0.9,0-1.8,0.1-2.7,0.3c8.8,1.3,15.5,8.8,15.5,17.9c0,9.1-6.7,16.6-15.5,17.9
						c0.9,0.1,1.8,0.3,2.7,0.3c10.1,0,18.2-8.2,18.2-18.2C932,816,923.8,807.8,913.8,807.8z"/>
					<g>
						<path class="st5" d="M913.8,705.4c-21.9,0-39.1,27.9-39.1,63.6c0,0.3,0,0.6,0,0.9h13.1c0-0.3,0-0.6,0-0.9
							c0-26.9,12.1-50.5,26-50.5c13.8,0,26,23.6,26,50.5c0,18.3-5.6,35-13.5,43.9c-3.8,4.2-8,6.7-12.5,6.7c-4.5,0-8.7-2.5-12.5-6.7
							c-3.4,3.2-5.5,7.7-5.7,12.6c5.4,4.5,11.5,7.1,18.2,7.1c6.6,0,12.8-2.6,18.2-7.1c12.5-10.5,20.9-31.6,20.9-56.5
							C952.8,733.3,935.7,705.4,913.8,705.4z"/>
					</g>
				</g>
				<g>
					<linearGradient id="SVGID_29_" gradientUnits="userSpaceOnUse" x1="1006.2915" y1="782.0423" x2="1006.2915" y2="960.7833">
						<stop  offset="0" style="stop-color:#FFFFFF"/>
						<stop  offset="1" style="stop-color:#000000"/>
					</linearGradient>
					<circle class="st36" cx="1006.3" cy="826.1" r="18.2"/>
					<linearGradient id="SVGID_30_" gradientUnits="userSpaceOnUse" x1="1014.0389" y1="794.2405" x2="1014.0389" y2="896.0695">
						<stop  offset="0" style="stop-color:#FFFFFF"/>
						<stop  offset="1" style="stop-color:#000000"/>
					</linearGradient>
					<path class="st37" d="M1006.3,807.8c-0.9,0-1.8,0.1-2.7,0.3c8.8,1.3,15.5,8.8,15.5,17.9c0,9.1-6.7,16.6-15.5,17.9
						c0.9,0.1,1.8,0.3,2.7,0.3c10.1,0,18.2-8.2,18.2-18.2C1024.5,816,1016.4,807.8,1006.3,807.8z"/>
					<g>
						<path class="st5" d="M1006.3,705.4c-21.9,0-39.1,27.9-39.1,63.6c0,0.3,0,0.6,0,0.9h13.1c0-0.3,0-0.6,0-0.9
							c0-26.9,12.1-50.5,26-50.5c13.9,0,26,23.6,26,50.5c0,18.3-5.6,35-13.5,43.9c-3.7,4.2-8,6.7-12.5,6.7c-4.5,0-8.7-2.5-12.5-6.7
							c-3.4,3.2-5.5,7.7-5.7,12.6c5.4,4.5,11.6,7.1,18.2,7.1c6.6,0,12.8-2.6,18.2-7.1c12.5-10.5,20.9-31.6,20.9-56.5
							C1045.3,733.3,1028.2,705.4,1006.3,705.4z"/>
					</g>
				</g>
				<g>
					<linearGradient id="SVGID_31_" gradientUnits="userSpaceOnUse" x1="1098.7902" y1="782.0423" x2="1098.7902" y2="960.7833">
						<stop  offset="0" style="stop-color:#FFFFFF"/>
						<stop  offset="1" style="stop-color:#000000"/>
					</linearGradient>
					<circle class="st38" cx="1098.8" cy="826.1" r="18.2"/>
					<linearGradient id="SVGID_32_" gradientUnits="userSpaceOnUse" x1="1106.5389" y1="794.2405" x2="1106.5389" y2="896.0695">
						<stop  offset="0" style="stop-color:#FFFFFF"/>
						<stop  offset="1" style="stop-color:#000000"/>
					</linearGradient>
					<path class="st39" d="M1098.8,807.8c-0.9,0-1.8,0.1-2.7,0.3c8.8,1.3,15.5,8.8,15.5,17.9c0,9.1-6.7,16.6-15.5,17.9
						c0.9,0.1,1.8,0.3,2.7,0.3c10.1,0,18.2-8.2,18.2-18.2C1117,816,1108.9,807.8,1098.8,807.8z"/>
					<g>
						<path class="st5" d="M1098.8,705.4c-21.9,0-39,27.9-39,63.6c0,0.3,0,0.6,0,0.9h13.1c0-0.3,0-0.6,0-0.9
							c0-26.9,12.2-50.5,26-50.5c13.9,0,26,23.6,26,50.5c0,18.3-5.6,35-13.5,43.9c-3.7,4.2-8,6.7-12.5,6.7c-4.5,0-8.7-2.5-12.5-6.7
							c-3.4,3.2-5.5,7.7-5.7,12.6c5.4,4.5,11.6,7.1,18.2,7.1c6.6,0,12.8-2.6,18.2-7.1c12.5-10.5,20.9-31.6,20.9-56.5
							C1137.8,733.3,1120.7,705.4,1098.8,705.4z"/>
					</g>
				</g>
				<g>
					<linearGradient id="SVGID_33_" gradientUnits="userSpaceOnUse" x1="1191.291" y1="782.0423" x2="1191.291" y2="960.7833">
						<stop  offset="0" style="stop-color:#FFFFFF"/>
						<stop  offset="1" style="stop-color:#000000"/>
					</linearGradient>
					<ellipse class="st40" cx="1191.3" cy="826.1" rx="18.2" ry="18.2"/>
					<linearGradient id="SVGID_34_" gradientUnits="userSpaceOnUse" x1="1199.037" y1="794.2405" x2="1199.037" y2="896.0695">
						<stop  offset="0" style="stop-color:#FFFFFF"/>
						<stop  offset="1" style="stop-color:#000000"/>
					</linearGradient>
					<path class="st41" d="M1191.3,807.8c-0.9,0-1.8,0.1-2.7,0.3c8.8,1.3,15.5,8.8,15.5,17.9c0,9.1-6.7,16.6-15.5,17.9
						c0.9,0.1,1.8,0.3,2.7,0.3c10.1,0,18.2-8.2,18.2-18.2C1209.5,816,1201.3,807.8,1191.3,807.8z"/>
					<g>
						<path class="st5" d="M1191.3,705.4c-21.9,0-39.1,27.9-39.1,63.6c0,0.3,0,0.6,0,0.9h13.1c0-0.3,0-0.6,0-0.9
							c0-26.9,12.1-50.5,26-50.5c13.8,0,26,23.6,26,50.5c0,18.3-5.6,35-13.5,43.9c-3.8,4.2-8,6.7-12.5,6.7c-4.5,0-8.7-2.5-12.5-6.7
							c-3.4,3.2-5.5,7.7-5.7,12.6c5.4,4.5,11.6,7.1,18.2,7.1c6.6,0,12.8-2.6,18.2-7.1c12.5-10.5,20.9-31.6,20.9-56.5
							C1230.3,733.3,1213.2,705.4,1191.3,705.4z"/>
					</g>
				</g>
				<g>
					<linearGradient id="SVGID_35_" gradientUnits="userSpaceOnUse" x1="1283.7917" y1="782.0423" x2="1283.7917" y2="960.7833">
						<stop  offset="0" style="stop-color:#FFFFFF"/>
						<stop  offset="1" style="stop-color:#000000"/>
					</linearGradient>
					<circle class="st42" cx="1283.8" cy="826.1" r="18.2"/>
					<linearGradient id="SVGID_36_" gradientUnits="userSpaceOnUse" x1="1291.5382" y1="794.2405" x2="1291.5382" y2="896.0695">
						<stop  offset="0" style="stop-color:#FFFFFF"/>
						<stop  offset="1" style="stop-color:#000000"/>
					</linearGradient>
					<path class="st43" d="M1283.8,807.8c-0.9,0-1.8,0.1-2.7,0.3c8.8,1.3,15.5,8.8,15.5,17.9c0,9.1-6.7,16.6-15.5,17.9
						c0.9,0.1,1.8,0.3,2.7,0.3c10.1,0,18.2-8.2,18.2-18.2C1302,816,1293.9,807.8,1283.8,807.8z"/>
					<g>
						<path class="st5" d="M1283.8,705.4c-21.9,0-39.1,27.9-39.1,63.6c0,0.3,0,0.6,0,0.9h13.1c0-0.3,0-0.6,0-0.9
							c0-26.9,12.1-50.5,26-50.5c13.8,0,26,23.6,26,50.5c0,18.3-5.6,35-13.5,43.9c-3.7,4.2-8,6.7-12.5,6.7c-4.5,0-8.7-2.5-12.5-6.7
							c-3.4,3.2-5.5,7.7-5.7,12.6c5.4,4.5,11.6,7.1,18.2,7.1c6.6,0,12.8-2.6,18.2-7.1c12.5-10.5,20.9-31.6,20.9-56.5
							C1322.8,733.3,1305.7,705.4,1283.8,705.4z"/>
					</g>
				</g>
				<g>
					<linearGradient id="SVGID_37_" gradientUnits="userSpaceOnUse" x1="1376.291" y1="782.0423" x2="1376.291" y2="960.7833">
						<stop  offset="0" style="stop-color:#FFFFFF"/>
						<stop  offset="1" style="stop-color:#000000"/>
					</linearGradient>
					<circle class="st44" cx="1376.3" cy="826.1" r="18.2"/>
					<linearGradient id="SVGID_38_" gradientUnits="userSpaceOnUse" x1="1384.0381" y1="794.2405" x2="1384.0381" y2="896.0695">
						<stop  offset="0" style="stop-color:#FFFFFF"/>
						<stop  offset="1" style="stop-color:#000000"/>
					</linearGradient>
					<path class="st45" d="M1376.3,807.8c-0.9,0-1.8,0.1-2.7,0.3c8.8,1.3,15.5,8.8,15.5,17.9c0,9.1-6.7,16.6-15.5,17.9
						c0.9,0.1,1.8,0.3,2.7,0.3c10.1,0,18.2-8.2,18.2-18.2C1394.5,816,1386.4,807.8,1376.3,807.8z"/>
					<g>
						<path class="st5" d="M1376.3,705.4c-21.9,0-39.1,27.9-39.1,63.6c0,0.3,0,0.6,0,0.9h13.1c0-0.3,0-0.6,0-0.9
							c0-26.9,12.1-50.5,26-50.5c13.9,0,26,23.6,26,50.5c0,18.3-5.6,35-13.5,43.9c-3.7,4.2-8,6.7-12.5,6.7c-4.5,0-8.7-2.5-12.5-6.7
							c-3.4,3.2-5.5,7.7-5.7,12.6c5.4,4.5,11.6,7.1,18.2,7.1c6.6,0,12.8-2.6,18.2-7.1c12.5-10.5,20.9-31.6,20.9-56.5
							C1415.3,733.3,1398.2,705.4,1376.3,705.4z"/>
					</g>
				</g>
				<g>
					<linearGradient id="SVGID_39_" gradientUnits="userSpaceOnUse" x1="1468.792" y1="782.0423" x2="1468.792" y2="960.7833">
						<stop  offset="0" style="stop-color:#FFFFFF"/>
						<stop  offset="1" style="stop-color:#000000"/>
					</linearGradient>
					<ellipse class="st46" cx="1468.8" cy="826.1" rx="18.2" ry="18.2"/>
					<linearGradient id="SVGID_40_" gradientUnits="userSpaceOnUse" x1="1476.5378" y1="794.2405" x2="1476.5378" y2="896.0695">
						<stop  offset="0" style="stop-color:#FFFFFF"/>
						<stop  offset="1" style="stop-color:#000000"/>
					</linearGradient>
					<path class="st47" d="M1468.8,807.8c-0.9,0-1.8,0.1-2.7,0.3c8.8,1.3,15.5,8.8,15.5,17.9c0,9.1-6.7,16.6-15.5,17.9
						c0.9,0.1,1.8,0.3,2.7,0.3c10.1,0,18.2-8.2,18.2-18.2C1487,816,1478.9,807.8,1468.8,807.8z"/>
					<g>
						<path class="st5" d="M1468.8,705.4c-21.9,0-39.1,27.9-39.1,63.6c0,0.3,0,0.6,0,0.9h13.1c0-0.3,0-0.6,0-0.9
							c0-26.9,12.1-50.5,26-50.5c13.9,0,26,23.6,26,50.5c0,18.3-5.6,35-13.5,43.9c-3.8,4.2-8,6.7-12.5,6.7c-4.5,0-8.7-2.5-12.5-6.7
							c-3.4,3.2-5.5,7.7-5.7,12.6c5.4,4.5,11.6,7.1,18.2,7.1c6.6,0,12.8-2.6,18.2-7.1c12.5-10.5,20.9-31.6,20.9-56.5
							C1507.8,733.3,1490.7,705.4,1468.8,705.4z"/>
					</g>
				</g>
				<g>
					<linearGradient id="SVGID_41_" gradientUnits="userSpaceOnUse" x1="1561.29" y1="782.0423" x2="1561.29" y2="960.7833">
						<stop  offset="0" style="stop-color:#FFFFFF"/>
						<stop  offset="1" style="stop-color:#000000"/>
					</linearGradient>
					<ellipse class="st48" cx="1561.3" cy="826.1" rx="18.2" ry="18.2"/>
					<linearGradient id="SVGID_42_" gradientUnits="userSpaceOnUse" x1="1569.0365" y1="794.2405" x2="1569.0365" y2="896.0695">
						<stop  offset="0" style="stop-color:#FFFFFF"/>
						<stop  offset="1" style="stop-color:#000000"/>
					</linearGradient>
					<path class="st49" d="M1561.3,807.8c-0.9,0-1.8,0.1-2.7,0.3c8.8,1.3,15.5,8.8,15.5,17.9c0,9.1-6.7,16.6-15.5,17.9
						c0.9,0.1,1.8,0.3,2.7,0.3c10.1,0,18.2-8.2,18.2-18.2C1579.5,816,1571.3,807.8,1561.3,807.8z"/>
					<g>
						<path class="st5" d="M1561.3,705.4c-21.9,0-39.1,27.9-39.1,63.6c0,0.3,0,0.6,0,0.9h13.1c0-0.3,0-0.6,0-0.9
							c0-26.9,12.1-50.5,26-50.5c13.8,0,26,23.6,26,50.5c0,18.3-5.6,35-13.5,43.9c-3.7,4.2-8,6.7-12.5,6.7c-4.5,0-8.7-2.5-12.5-6.7
							c-3.4,3.2-5.5,7.7-5.7,12.6c5.4,4.5,11.6,7.1,18.2,7.1c6.6,0,12.8-2.6,18.2-7.1c12.5-10.5,20.9-31.6,20.9-56.5
							C1600.3,733.3,1583.2,705.4,1561.3,705.4z"/>
					</g>
				</g>
				<g>
					<linearGradient id="SVGID_43_" gradientUnits="userSpaceOnUse" x1="1653.7916" y1="782.0423" x2="1653.7916" y2="960.7833">
						<stop  offset="0" style="stop-color:#FFFFFF"/>
						<stop  offset="1" style="stop-color:#000000"/>
					</linearGradient>
					<circle class="st50" cx="1653.8" cy="826.1" r="18.2"/>
					<linearGradient id="SVGID_44_" gradientUnits="userSpaceOnUse" x1="1661.5381" y1="794.2405" x2="1661.5381" y2="896.0695">
						<stop  offset="0" style="stop-color:#FFFFFF"/>
						<stop  offset="1" style="stop-color:#000000"/>
					</linearGradient>
					<path class="st51" d="M1653.8,807.8c-0.9,0-1.8,0.1-2.7,0.3c8.8,1.3,15.5,8.8,15.5,17.9c0,9.1-6.7,16.6-15.5,17.9
						c0.9,0.1,1.8,0.3,2.7,0.3c10.1,0,18.2-8.2,18.2-18.2C1672,816,1663.9,807.8,1653.8,807.8z"/>
					<g>
						<path class="st5" d="M1653.8,705.4c-21.9,0-39.1,27.9-39.1,63.6c0,0.3,0,0.6,0,0.9h13.1c0-0.3,0-0.6,0-0.9
							c0-26.9,12.1-50.5,26-50.5c13.9,0,26,23.6,26,50.5c0,18.3-5.6,35-13.5,43.9c-3.7,4.2-8,6.7-12.5,6.7c-4.5,0-8.7-2.5-12.5-6.7
							c-3.4,3.2-5.5,7.7-5.7,12.6c5.4,4.5,11.6,7.1,18.2,7.1c6.6,0,12.8-2.6,18.2-7.1c12.5-10.5,20.9-31.6,20.9-56.5
							C1692.8,733.3,1675.7,705.4,1653.8,705.4z"/>
					</g>
				</g>
				<g>
					<linearGradient id="SVGID_45_" gradientUnits="userSpaceOnUse" x1="1746.2903" y1="782.0423" x2="1746.2903" y2="960.7833">
						<stop  offset="0" style="stop-color:#FFFFFF"/>
						<stop  offset="1" style="stop-color:#000000"/>
					</linearGradient>
					<circle class="st52" cx="1746.3" cy="826.1" r="18.2"/>
					<linearGradient id="SVGID_46_" gradientUnits="userSpaceOnUse" x1="1754.0389" y1="794.2405" x2="1754.0389" y2="896.0695">
						<stop  offset="0" style="stop-color:#FFFFFF"/>
						<stop  offset="1" style="stop-color:#000000"/>
					</linearGradient>
					<path class="st53" d="M1746.3,807.8c-0.9,0-1.8,0.1-2.7,0.3c8.8,1.3,15.5,8.8,15.5,17.9c0,9.1-6.7,16.6-15.5,17.9
						c0.9,0.1,1.8,0.3,2.7,0.3c10.1,0,18.2-8.2,18.2-18.2C1764.5,816,1756.4,807.8,1746.3,807.8z"/>
					<g>
						<path class="st5" d="M1746.3,705.4c-21.9,0-39,27.9-39,63.6c0,0.3,0,0.6,0,0.9h13.1c0-0.3,0-0.6,0-0.9
							c0-26.9,12.2-50.5,26-50.5c13.9,0,26,23.6,26,50.5c0,18.3-5.6,35-13.5,43.9c-3.8,4.2-8,6.7-12.5,6.7c-4.4,0-8.7-2.5-12.5-6.7
							c-3.4,3.2-5.5,7.7-5.7,12.6c5.4,4.5,11.6,7.1,18.2,7.1c6.6,0,12.8-2.6,18.2-7.1c12.5-10.5,20.9-31.6,20.9-56.5
							C1785.3,733.3,1768.2,705.4,1746.3,705.4z"/>
					</g>
				</g>
				<g>
					<linearGradient id="SVGID_47_" gradientUnits="userSpaceOnUse" x1="1838.7911" y1="782.0423" x2="1838.7911" y2="960.7833">
						<stop  offset="0" style="stop-color:#FFFFFF"/>
						<stop  offset="1" style="stop-color:#000000"/>
					</linearGradient>
					<path class="st54" d="M1857,826.1c0,10.1-8.2,18.2-18.2,18.2c-10.1,0-18.2-8.2-18.2-18.2c0-10.1,8.2-18.2,18.2-18.2
						C1848.9,807.8,1857,816,1857,826.1z"/>
					<linearGradient id="SVGID_48_" gradientUnits="userSpaceOnUse" x1="1846.5382" y1="794.2405" x2="1846.5382" y2="896.0695">
						<stop  offset="0" style="stop-color:#FFFFFF"/>
						<stop  offset="1" style="stop-color:#000000"/>
					</linearGradient>
					<path class="st55" d="M1838.8,807.8c-0.9,0-1.8,0.1-2.7,0.3c8.8,1.3,15.5,8.8,15.5,17.9c0,9.1-6.7,16.6-15.5,17.9
						c0.9,0.1,1.8,0.3,2.7,0.3c10.1,0,18.2-8.2,18.2-18.2C1857,816,1848.9,807.8,1838.8,807.8z"/>
					<g>
						<path class="st5" d="M1838.8,705.4c-21.9,0-39.1,27.9-39.1,63.6c0,0.3,0,0.6,0,0.9h13.1c0-0.3,0-0.6,0-0.9
							c0-26.9,12.1-50.5,26-50.5c13.8,0,26,23.6,26,50.5c0,18.3-5.6,35-13.5,43.9c-3.8,4.2-8,6.7-12.5,6.7c-4.5,0-8.7-2.5-12.5-6.7
							c-3.4,3.2-5.5,7.7-5.7,12.6c5.4,4.5,11.6,7.1,18.2,7.1c6.6,0,12.8-2.6,18.2-7.1c12.5-10.5,20.9-31.6,20.9-56.5
							C1877.8,733.3,1860.7,705.4,1838.8,705.4z"/>
					</g>
				</g>
				<g>
					<linearGradient id="SVGID_49_" gradientUnits="userSpaceOnUse" x1="1931.2921" y1="782.0423" x2="1931.2921" y2="960.7833">
						<stop  offset="0" style="stop-color:#FFFFFF"/>
						<stop  offset="1" style="stop-color:#000000"/>
					</linearGradient>
					<path class="st56" d="M1949.5,826.1c0,10.1-8.2,18.2-18.2,18.2c-10.1,0-18.2-8.2-18.2-18.2c0-10.1,8.2-18.2,18.2-18.2
						C1941.4,807.8,1949.5,816,1949.5,826.1z"/>
					<linearGradient id="SVGID_50_" gradientUnits="userSpaceOnUse" x1="1939.0386" y1="794.2405" x2="1939.0386" y2="896.0695">
						<stop  offset="0" style="stop-color:#FFFFFF"/>
						<stop  offset="1" style="stop-color:#000000"/>
					</linearGradient>
					<path class="st57" d="M1931.3,807.8c-0.9,0-1.8,0.1-2.7,0.3c8.8,1.3,15.5,8.8,15.5,17.9c0,9.1-6.7,16.6-15.5,17.9
						c0.9,0.1,1.8,0.3,2.7,0.3c10.1,0,18.2-8.2,18.2-18.2C1949.5,816,1941.4,807.8,1931.3,807.8z"/>
					<g>
						<path class="st5" d="M1931.3,705.4c-21.9,0-39.1,27.9-39.1,63.6c0,0.3,0,0.6,0,0.9h13.1c0-0.3,0-0.6,0-0.9
							c0-26.9,12.1-50.5,26-50.5c13.8,0,26,23.6,26,50.5c0,18.3-5.6,35-13.5,43.9c-3.7,4.2-8,6.7-12.5,6.7c-4.5,0-8.7-2.5-12.5-6.7
							c-3.4,3.2-5.5,7.7-5.7,12.6c5.4,4.5,11.6,7.1,18.2,7.1c6.6,0,12.8-2.6,18.2-7.1c12.5-10.5,20.9-31.6,20.9-56.5
							C1970.3,733.3,1953.2,705.4,1931.3,705.4z"/>
					</g>
				</g>
				<g>
					<linearGradient id="SVGID_51_" gradientUnits="userSpaceOnUse" x1="2023.7908" y1="782.0423" x2="2023.7908" y2="960.7833">
						<stop  offset="0" style="stop-color:#FFFFFF"/>
						<stop  offset="1" style="stop-color:#000000"/>
					</linearGradient>
					<circle class="st58" cx="2023.8" cy="826.1" r="18.2"/>
					<linearGradient id="SVGID_52_" gradientUnits="userSpaceOnUse" x1="2031.5378" y1="794.2405" x2="2031.5378" y2="896.0695">
						<stop  offset="0" style="stop-color:#FFFFFF"/>
						<stop  offset="1" style="stop-color:#000000"/>
					</linearGradient>
					<path class="st59" d="M2023.8,807.8c-0.9,0-1.8,0.1-2.7,0.3c8.8,1.3,15.5,8.8,15.5,17.9c0,9.1-6.7,16.6-15.5,17.9
						c0.9,0.1,1.8,0.3,2.7,0.3c10.1,0,18.2-8.2,18.2-18.2C2042,816,2033.9,807.8,2023.8,807.8z"/>
					<g>
						<path class="st5" d="M2023.8,705.4c-21.9,0-39,27.9-39,63.6c0,0.3,0,0.6,0,0.9h13.1c0-0.3,0-0.6,0-0.9
							c0-26.9,12.1-50.5,26-50.5c13.9,0,26,23.6,26,50.5c0,18.3-5.6,35-13.5,43.9c-3.8,4.2-8,6.7-12.5,6.7c-4.5,0-8.7-2.5-12.5-6.7
							c-3.4,3.2-5.5,7.7-5.7,12.6c5.4,4.5,11.6,7.1,18.2,7.1c6.6,0,12.8-2.6,18.2-7.1c12.5-10.5,20.9-31.6,20.9-56.5
							C2062.8,733.3,2045.7,705.4,2023.8,705.4z"/>
					</g>
				</g>
				<g>
					<image style="overflow:visible;" width="460" height="309" xlink:href="D98EB913.png"  transform="matrix(1 0 0 1 1512 1535)">
					</image>
					<path class="st60" d="M1944.9,1831.7c0,6.4-5.3,11.7-11.7,11.7H1550c-6.4,0-11.7-5.3-11.7-11.7v-258.2
						c0-6.4,5.3-11.7,11.7-11.7h383.2c6.4,0,11.7,5.3,11.7,11.7V1831.7z"/>
					<g>
						<path class="st5" d="M1708.1,1691.7c0-37.4-18.4-58.1-48.9-58.1c-30.5,0-48.9,20.8-48.9,58.1c0,50.1-22.5,66-22.5,66h71.4
							h71.4C1730.6,1757.7,1708.1,1741.7,1708.1,1691.7z"/>
						<g>
							<defs>
								<filter id="Adobe_OpacityMaskFilter" filterUnits="userSpaceOnUse" x="1694.6" y="1659.3" width="8.3" height="13.5">
									<feFlood  style="flood-color:white;flood-opacity:1" result="back"/>
									<feBlend  in="SourceGraphic" in2="back" mode="normal"/>
								</filter>
							</defs>
							<mask maskUnits="userSpaceOnUse" x="1694.6" y="1659.3" width="8.3" height="13.5" id="SVGID_53_">
								<g class="st61">
									<defs>
										<filter id="Adobe_OpacityMaskFilter_1_" filterUnits="userSpaceOnUse" x="1694.6" y="1659.3" width="8.3" height="13.5">
											<feFlood  style="flood-color:white;flood-opacity:1" result="back"/>
											<feBlend  in="SourceGraphic" in2="back" mode="normal"/>
										</filter>
									</defs>
									<mask maskUnits="userSpaceOnUse" x="1694.6" y="1659.3" width="8.3" height="13.5" id="SVGID_53_">
										<g class="st62">
										</g>
									</mask>
									
										<linearGradient id="SVGID_54_" gradientUnits="userSpaceOnUse" x1="1632.527" y1="1586.061" x2="1737.5894" y2="1713.0704">
										<stop  offset="0" style="stop-color:#FFFFFF"/>
										<stop  offset="1" style="stop-color:#000000"/>
									</linearGradient>
									<path class="st63" d="M1700.8,1672.7c1.4-0.4,2.3-1.9,1.9-3.3c-0.8-3-1.8-5.9-3-8.5c-0.6-1.4-2.2-2-3.6-1.4
										c-1.4,0.6-2,2.2-1.4,3.6c1.1,2.4,2,5,2.7,7.7c0.3,1.2,1.4,2,2.6,2C1700.4,1672.8,1700.6,1672.8,1700.8,1672.7z"/>
								</g>
							</mask>
							<linearGradient id="SVGID_55_" gradientUnits="userSpaceOnUse" x1="1632.527" y1="1586.061" x2="1737.5894" y2="1713.0704">
								<stop  offset="0" style="stop-color:#FFFFFF"/>
								<stop  offset="1" style="stop-color:#FFFFFF"/>
							</linearGradient>
							<path class="st64" d="M1700.8,1672.7c1.4-0.4,2.3-1.9,1.9-3.3c-0.8-3-1.8-5.9-3-8.5c-0.6-1.4-2.2-2-3.6-1.4
								c-1.4,0.6-2,2.2-1.4,3.6c1.1,2.4,2,5,2.7,7.7c0.3,1.2,1.4,2,2.6,2C1700.4,1672.8,1700.6,1672.8,1700.8,1672.7z"/>
							<defs>
								<filter id="Adobe_OpacityMaskFilter_2_" filterUnits="userSpaceOnUse" x="1678.2" y="1641.2" width="17.4" height="16">
									<feFlood  style="flood-color:white;flood-opacity:1" result="back"/>
									<feBlend  in="SourceGraphic" in2="back" mode="normal"/>
								</filter>
							</defs>
							<mask maskUnits="userSpaceOnUse" x="1678.2" y="1641.2" width="17.4" height="16" id="SVGID_56_">
								<g class="st65">
									<defs>
										<filter id="Adobe_OpacityMaskFilter_3_" filterUnits="userSpaceOnUse" x="1678.2" y="1641.2" width="17.4" height="16">
											<feFlood  style="flood-color:white;flood-opacity:1" result="back"/>
											<feBlend  in="SourceGraphic" in2="back" mode="normal"/>
										</filter>
									</defs>
									<mask maskUnits="userSpaceOnUse" x="1678.2" y="1641.2" width="17.4" height="16" id="SVGID_56_">
										<g class="st66">
										</g>
									</mask>
									
										<linearGradient id="SVGID_57_" gradientUnits="userSpaceOnUse" x1="1633.8724" y1="1584.9637" x2="1738.9298" y2="1711.9672">
										<stop  offset="0" style="stop-color:#FFFFFF"/>
										<stop  offset="1" style="stop-color:#000000"/>
									</linearGradient>
									<path class="st67" d="M1695.2,1652.9c-3.5-4.8-7.8-8.7-12.9-11.4c-1.3-0.7-2.9-0.2-3.7,1.1c-0.7,1.3-0.2,2.9,1.1,3.7
										c4.4,2.4,8.1,5.7,11.1,9.8c0.5,0.7,1.4,1.1,2.2,1.1c0.6,0,1.1-0.2,1.6-0.5C1695.8,1655.8,1696,1654.1,1695.2,1652.9z"/>
								</g>
							</mask>
							
								<linearGradient id="SVGID_58_" gradientUnits="userSpaceOnUse" x1="1633.8724" y1="1584.9637" x2="1738.9298" y2="1711.9672">
								<stop  offset="0" style="stop-color:#FFFFFF"/>
								<stop  offset="1" style="stop-color:#FFFFFF"/>
							</linearGradient>
							<path class="st68" d="M1695.2,1652.9c-3.5-4.8-7.8-8.7-12.9-11.4c-1.3-0.7-2.9-0.2-3.7,1.1c-0.7,1.3-0.2,2.9,1.1,3.7
								c4.4,2.4,8.1,5.7,11.1,9.8c0.5,0.7,1.4,1.1,2.2,1.1c0.6,0,1.1-0.2,1.6-0.5C1695.8,1655.8,1696,1654.1,1695.2,1652.9z"/>
							<defs>
								<filter id="Adobe_OpacityMaskFilter_4_" filterUnits="userSpaceOnUse" x="1699.1" y="1675.9" width="5.6" height="7.2">
									<feFlood  style="flood-color:white;flood-opacity:1" result="back"/>
									<feBlend  in="SourceGraphic" in2="back" mode="normal"/>
								</filter>
							</defs>
							<mask maskUnits="userSpaceOnUse" x="1699.1" y="1675.9" width="5.6" height="7.2" id="SVGID_59_">
								<g class="st69">
									<defs>
										<filter id="Adobe_OpacityMaskFilter_5_" filterUnits="userSpaceOnUse" x="1699.1" y="1675.9" width="5.6" height="7.2">
											<feFlood  style="flood-color:white;flood-opacity:1" result="back"/>
											<feBlend  in="SourceGraphic" in2="back" mode="normal"/>
										</filter>
									</defs>
									<mask maskUnits="userSpaceOnUse" x="1699.1" y="1675.9" width="5.6" height="7.2" id="SVGID_59_">
										<g class="st70">
										</g>
									</mask>
									
										<linearGradient id="SVGID_60_" gradientUnits="userSpaceOnUse" x1="1627.7719" y1="1589.8185" x2="1732.9535" y2="1716.9722">
										<stop  offset="0" style="stop-color:#FFFFFF"/>
										<stop  offset="1" style="stop-color:#000000"/>
									</linearGradient>
									<path class="st71" d="M1704.7,1680.1c-0.1-0.6-0.2-1.3-0.2-1.9c-0.2-1.5-1.6-2.5-3.1-2.3c-1.5,0.2-2.5,1.6-2.3,3
										c0.1,0.6,0.2,1.2,0.2,1.8c0.2,1.4,1.3,2.4,2.7,2.4c0.1,0,0.2,0,0.3,0C1703.9,1682.9,1704.9,1681.6,1704.7,1680.1z"/>
								</g>
							</mask>
							
								<linearGradient id="SVGID_61_" gradientUnits="userSpaceOnUse" x1="1627.7719" y1="1589.8185" x2="1732.9535" y2="1716.9722">
								<stop  offset="0" style="stop-color:#FFFFFF"/>
								<stop  offset="1" style="stop-color:#FFFFFF"/>
							</linearGradient>
							<path class="st72" d="M1704.7,1680.1c-0.1-0.6-0.2-1.3-0.2-1.9c-0.2-1.5-1.6-2.5-3.1-2.3c-1.5,0.2-2.5,1.6-2.3,3
								c0.1,0.6,0.2,1.2,0.2,1.8c0.2,1.4,1.3,2.4,2.7,2.4c0.1,0,0.2,0,0.3,0C1703.9,1682.9,1704.9,1681.6,1704.7,1680.1z"/>
						</g>
						<path class="st2" d="M1743.9,1764.4c0,3.7-3,6.7-6.7,6.7h-155.9c-3.7,0-6.7-3-6.7-6.7c0-3.7,3-6.7,6.7-6.7h155.9
							C1740.8,1757.7,1743.9,1760.7,1743.9,1764.4z"/>
						<linearGradient id="SVGID_62_" gradientUnits="userSpaceOnUse" x1="1659.1666" y1="1639.631" x2="1659.1666" y2="1632.6681">
							<stop  offset="0" style="stop-color:#5E5E5E"/>
							<stop  offset="1" style="stop-color:#FFFFFF"/>
						</linearGradient>
						<path class="st73" d="M1642.6,1635.9c3.6,1.5,9.7,2.5,16.5,2.5c6.9,0,12.9-1,16.5-2.5c-5-1.6-10.5-2.4-16.5-2.4
							C1653.2,1633.5,1647.6,1634.3,1642.6,1635.9z"/>
						<linearGradient id="SVGID_63_" gradientUnits="userSpaceOnUse" x1="1616.8179" y1="1792.3647" x2="1616.8179" y2="1664.2319">
							<stop  offset="0" style="stop-color:#5E5E5E"/>
							<stop  offset="1" style="stop-color:#FFFFFF"/>
						</linearGradient>
						<path class="st74" d="M1610.2,1691.7c0,50.1-22.5,66-22.5,66h-6.6c-3.7,0-6.7,3-6.7,6.7c0,3.7,3,6.7,6.7,6.7h35
							c-2,0-3.7-3-3.7-6.7c0-3.7,1.7-6.7,3.7-6.7h3.6c0,0,12.4-15.9,12.4-66c0-37.4,10.1-58.1,27-58.1
							C1628.6,1633.5,1610.2,1654.3,1610.2,1691.7z"/>
						<path class="st5" d="M1659.2,1600c-11.1,0-20,8.6-20,19.2c0,10.6,9,19.2,20,19.2c11.1,0,20-8.6,20-19.2
							C1679.2,1608.6,1670.2,1600,1659.2,1600z M1659.2,1628.1c-5.1,0-9.3-4-9.3-8.9c0-4.9,4.2-8.9,9.3-8.9c5.1,0,9.3,4,9.3,8.9
							C1668.4,1624.1,1664.3,1628.1,1659.2,1628.1z"/>
						<path class="st5" d="M1659.2,1785.7c11.1,0,20.7-5.9,25.6-14.6h-51.3C1638.5,1779.8,1648.1,1785.7,1659.2,1785.7z"/>
						<linearGradient id="SVGID_64_" gradientUnits="userSpaceOnUse" x1="1659.1603" y1="1771.2041" x2="1659.1603" y2="1782.1754">
							<stop  offset="0" style="stop-color:#5E5E5E"/>
							<stop  offset="1" style="stop-color:#FFFFFF"/>
						</linearGradient>
						<path class="st75" d="M1659.2,1785.7c11.1,0,20.7-5.9,25.6-14.6h-51.3C1638.5,1779.8,1648.1,1785.7,1659.2,1785.7z"/>
					</g>
					<g class="st76">
						<path class="st5" d="M1780,1731.9c0,3.6,2.9,6.5,6.5,6.5h130.1c3.6,0,6.5-2.9,6.5-6.5v-3.3c0-3.6-2.9-6.5-6.5-6.5h-130.1
							c-3.6,0-6.5,2.9-6.5,6.5V1731.9z M1780,1759.7c0,3.6,2.9,6.5,6.5,6.5h130.1c3.6,0,6.5-2.9,6.5-6.5v-3.3c0-3.6-2.9-6.5-6.5-6.5
							h-130.1c-3.6,0-6.5,2.9-6.5,6.5V1759.7z M1780,1815.1c0,3.6,2.9,6.5,6.5,6.5h75.5c3.6,0,6.5-2.9,6.5-6.5v-3.3
							c0-3.6-2.9-6.5-6.5-6.5h-75.5c-3.6,0-6.5,2.9-6.5,6.5V1815.1z M1780,1787.4c0,3.6,2.9,6.5,6.5,6.5h130.1
							c3.6,0,6.5-2.9,6.5-6.5v-3.3c0-3.6-2.9-6.5-6.5-6.5h-130.1c-3.6,0-6.5,2.9-6.5,6.5V1787.4z M1780,1704.2
							c0,3.6,2.9,6.5,6.5,6.5h130.1c3.6,0,6.5-2.9,6.5-6.5v-3.3c0-3.6-2.9-6.5-6.5-6.5h-130.1c-3.6,0-6.5,2.9-6.5,6.5V1704.2z
							 M1780,1621.1c0,3.6,2.9,6.5,6.5,6.5h130.1c3.6,0,6.5-2.9,6.5-6.5v-3.3c0-3.6-2.9-6.5-6.5-6.5h-130.1c-3.6,0-6.5,2.9-6.5,6.5
							V1621.1z M1780,1676.5c0,3.6,2.9,6.5,6.5,6.5h130.1c3.6,0,6.5-2.9,6.5-6.5v-3.3c0-3.6-2.9-6.5-6.5-6.5h-130.1
							c-3.6,0-6.5,2.9-6.5,6.5V1676.5z M1848.2,1583.6c-3.6,0-6.5,2.9-6.5,6.5v3.3c0,3.6,2.9,6.5,6.5,6.5h68.4
							c3.6,0,6.5-2.9,6.5-6.5v-3.3c0-3.6-2.9-6.5-6.5-6.5H1848.2z M1780,1648.8c0,3.6,2.9,6.5,6.5,6.5h130.1c3.6,0,6.5-2.9,6.5-6.5
							v-3.3c0-3.6-2.9-6.5-6.5-6.5h-130.1c-3.6,0-6.5,2.9-6.5,6.5V1648.8z"/>
					</g>
					<path class="st60" d="M1802.7,1576.4c4.8,0,6.2-3,3.2-6.7l-58.7-71c-3.1-3.7-8-3.7-11.1,0l-58.7,71c-3.1,3.7-1.6,6.7,3.2,6.7
						H1802.7z"/>
				</g>
				<g>
					<image style="overflow:visible;" width="460" height="335" xlink:href="D98EB915.png"  transform="matrix(1 0 0 1 484 1156)">
					</image>
					<path class="st77" d="M917.5,1452.6c0,6.4-5.3,11.7-11.7,11.7H522.6c-6.4,0-11.7-5.3-11.7-11.7v-258.2
						c0-6.4,5.3-11.7,11.7-11.7h383.2c6.4,0,11.7,5.3,11.7,11.7V1452.6z"/>
					<g>
						<path class="st5" d="M680.7,1312.6c0-37.4-18.4-58.1-48.9-58.1c-30.5,0-48.9,20.8-48.9,58.1c0,50.1-22.5,66-22.5,66h71.4h71.4
							C703.2,1378.6,680.7,1362.7,680.7,1312.6z"/>
						<g>
							<defs>
								<filter id="Adobe_OpacityMaskFilter_6_" filterUnits="userSpaceOnUse" x="667.1" y="1280.2" width="8.3" height="13.5">
									<feFlood  style="flood-color:white;flood-opacity:1" result="back"/>
									<feBlend  in="SourceGraphic" in2="back" mode="normal"/>
								</filter>
							</defs>
							<mask maskUnits="userSpaceOnUse" x="667.1" y="1280.2" width="8.3" height="13.5" id="SVGID_65_">
								<g class="st78">
									<defs>
										<filter id="Adobe_OpacityMaskFilter_7_" filterUnits="userSpaceOnUse" x="667.1" y="1280.2" width="8.3" height="13.5">
											<feFlood  style="flood-color:white;flood-opacity:1" result="back"/>
											<feBlend  in="SourceGraphic" in2="back" mode="normal"/>
										</filter>
									</defs>
									<mask maskUnits="userSpaceOnUse" x="667.1" y="1280.2" width="8.3" height="13.5" id="SVGID_65_">
										<g class="st79">
										</g>
									</mask>
									
										<linearGradient id="SVGID_66_" gradientUnits="userSpaceOnUse" x1="605.1454" y1="1207.0374" x2="710.1749" y2="1334.0071">
										<stop  offset="0" style="stop-color:#FFFFFF"/>
										<stop  offset="1" style="stop-color:#000000"/>
									</linearGradient>
									<path class="st80" d="M673.4,1293.7c1.4-0.4,2.3-1.9,1.9-3.3c-0.8-3-1.8-5.9-3-8.5c-0.6-1.3-2.2-2-3.6-1.3
										c-1.4,0.6-2,2.2-1.4,3.6c1.1,2.4,2,5,2.7,7.7c0.3,1.2,1.4,2,2.6,2C673,1293.8,673.2,1293.7,673.4,1293.7z"/>
								</g>
							</mask>
							<linearGradient id="SVGID_67_" gradientUnits="userSpaceOnUse" x1="605.1454" y1="1207.0374" x2="710.1749" y2="1334.0071">
								<stop  offset="0" style="stop-color:#FFFFFF"/>
								<stop  offset="1" style="stop-color:#FFFFFF"/>
							</linearGradient>
							<path class="st81" d="M673.4,1293.7c1.4-0.4,2.3-1.9,1.9-3.3c-0.8-3-1.8-5.9-3-8.5c-0.6-1.3-2.2-2-3.6-1.3
								c-1.4,0.6-2,2.2-1.4,3.6c1.1,2.4,2,5,2.7,7.7c0.3,1.2,1.4,2,2.6,2C673,1293.8,673.2,1293.7,673.4,1293.7z"/>
							<defs>
								<filter id="Adobe_OpacityMaskFilter_8_" filterUnits="userSpaceOnUse" x="650.8" y="1262.1" width="17.4" height="16">
									<feFlood  style="flood-color:white;flood-opacity:1" result="back"/>
									<feBlend  in="SourceGraphic" in2="back" mode="normal"/>
								</filter>
							</defs>
							<mask maskUnits="userSpaceOnUse" x="650.8" y="1262.1" width="17.4" height="16" id="SVGID_68_">
								<g class="st82">
									<defs>
										<filter id="Adobe_OpacityMaskFilter_9_" filterUnits="userSpaceOnUse" x="650.8" y="1262.1" width="17.4" height="16">
											<feFlood  style="flood-color:white;flood-opacity:1" result="back"/>
											<feBlend  in="SourceGraphic" in2="back" mode="normal"/>
										</filter>
									</defs>
									<mask maskUnits="userSpaceOnUse" x="650.8" y="1262.1" width="17.4" height="16" id="SVGID_68_">
										<g class="st83">
										</g>
									</mask>
									
										<linearGradient id="SVGID_69_" gradientUnits="userSpaceOnUse" x1="606.4752" y1="1205.9166" x2="711.5255" y2="1332.9115">
										<stop  offset="0" style="stop-color:#FFFFFF"/>
										<stop  offset="1" style="stop-color:#000000"/>
									</linearGradient>
									<path class="st84" d="M667.8,1273.9c-3.5-4.8-7.8-8.7-12.9-11.4c-1.3-0.7-2.9-0.2-3.7,1.1c-0.7,1.3-0.2,2.9,1.1,3.7
										c4.4,2.4,8.1,5.7,11.1,9.8c0.5,0.7,1.4,1.1,2.2,1.1c0.5,0,1.1-0.2,1.6-0.5C668.3,1276.8,668.6,1275.1,667.8,1273.9z"/>
								</g>
							</mask>
							<linearGradient id="SVGID_70_" gradientUnits="userSpaceOnUse" x1="606.4752" y1="1205.9166" x2="711.5255" y2="1332.9115">
								<stop  offset="0" style="stop-color:#FFFFFF"/>
								<stop  offset="1" style="stop-color:#FFFFFF"/>
							</linearGradient>
							<path class="st85" d="M667.8,1273.9c-3.5-4.8-7.8-8.7-12.9-11.4c-1.3-0.7-2.9-0.2-3.7,1.1c-0.7,1.3-0.2,2.9,1.1,3.7
								c4.4,2.4,8.1,5.7,11.1,9.8c0.5,0.7,1.4,1.1,2.2,1.1c0.5,0,1.1-0.2,1.6-0.5C668.3,1276.8,668.6,1275.1,667.8,1273.9z"/>
							<defs>
								<filter id="Adobe_OpacityMaskFilter_10_" filterUnits="userSpaceOnUse" x="671.7" y="1296.8" width="5.6" height="7.2">
									<feFlood  style="flood-color:white;flood-opacity:1" result="back"/>
									<feBlend  in="SourceGraphic" in2="back" mode="normal"/>
								</filter>
							</defs>
							<mask maskUnits="userSpaceOnUse" x="671.7" y="1296.8" width="5.6" height="7.2" id="SVGID_71_">
								<g class="st86">
									<defs>
										<filter id="Adobe_OpacityMaskFilter_11_" filterUnits="userSpaceOnUse" x="671.7" y="1296.8" width="5.6" height="7.2">
											<feFlood  style="flood-color:white;flood-opacity:1" result="back"/>
											<feBlend  in="SourceGraphic" in2="back" mode="normal"/>
										</filter>
									</defs>
									<mask maskUnits="userSpaceOnUse" x="671.7" y="1296.8" width="5.6" height="7.2" id="SVGID_71_">
										<g class="st87">
										</g>
									</mask>
									
										<linearGradient id="SVGID_72_" gradientUnits="userSpaceOnUse" x1="600.3898" y1="1210.7919" x2="705.5449" y2="1337.9135">
										<stop  offset="0" style="stop-color:#FFFFFF"/>
										<stop  offset="1" style="stop-color:#000000"/>
									</linearGradient>
									<path class="st88" d="M677.3,1301.1c-0.1-0.6-0.2-1.3-0.2-1.9c-0.2-1.5-1.6-2.5-3-2.3c-1.5,0.2-2.5,1.6-2.3,3
										c0.1,0.6,0.2,1.2,0.2,1.8c0.2,1.4,1.3,2.4,2.7,2.4c0.1,0,0.2,0,0.3,0C676.5,1303.9,677.5,1302.5,677.3,1301.1z"/>
								</g>
							</mask>
							<linearGradient id="SVGID_73_" gradientUnits="userSpaceOnUse" x1="600.3898" y1="1210.7919" x2="705.5449" y2="1337.9135">
								<stop  offset="0" style="stop-color:#FFFFFF"/>
								<stop  offset="1" style="stop-color:#FFFFFF"/>
							</linearGradient>
							<path class="st89" d="M677.3,1301.1c-0.1-0.6-0.2-1.3-0.2-1.9c-0.2-1.5-1.6-2.5-3-2.3c-1.5,0.2-2.5,1.6-2.3,3
								c0.1,0.6,0.2,1.2,0.2,1.8c0.2,1.4,1.3,2.4,2.7,2.4c0.1,0,0.2,0,0.3,0C676.5,1303.9,677.5,1302.5,677.3,1301.1z"/>
						</g>
						<path class="st2" d="M716.4,1385.3c0,3.7-3,6.7-6.7,6.7H553.8c-3.7,0-6.7-3-6.7-6.7c0-3.7,3-6.7,6.7-6.7h155.9
							C713.4,1378.6,716.4,1381.6,716.4,1385.3z"/>
						<linearGradient id="SVGID_74_" gradientUnits="userSpaceOnUse" x1="631.7634" y1="1260.5787" x2="631.7634" y2="1253.6174">
							<stop  offset="0" style="stop-color:#5E5E5E"/>
							<stop  offset="1" style="stop-color:#FFFFFF"/>
						</linearGradient>
						<path class="st90" d="M615.2,1256.9c3.6,1.5,9.7,2.5,16.5,2.5c6.9,0,12.9-1,16.5-2.5c-5-1.6-10.5-2.4-16.5-2.4
							C625.8,1254.5,620.2,1255.3,615.2,1256.9z"/>
						<linearGradient id="SVGID_75_" gradientUnits="userSpaceOnUse" x1="589.4186" y1="1413.314" x2="589.4186" y2="1285.181">
							<stop  offset="0" style="stop-color:#5E5E5E"/>
							<stop  offset="1" style="stop-color:#FFFFFF"/>
						</linearGradient>
						<path class="st91" d="M582.8,1312.6c0,50.1-22.5,66-22.5,66h-6.6c-3.7,0-6.7,3-6.7,6.7c0,3.7,3,6.7,6.7,6.7h35
							c-2,0-3.7-3-3.7-6.7c0-3.7,1.7-6.7,3.7-6.7h3.6c0,0,12.4-15.9,12.4-66c0-37.4,10.1-58.1,27-58.1
							C601.2,1254.5,582.8,1275.2,582.8,1312.6z"/>
						<path class="st5" d="M631.8,1221c-11.1,0-20,8.6-20,19.2c0,10.6,9,19.2,20,19.2c11.1,0,20-8.6,20-19.2
							C651.8,1229.6,642.8,1221,631.8,1221z M631.8,1249.1c-5.1,0-9.3-4-9.3-8.9c0-4.9,4.2-8.9,9.3-8.9c5.1,0,9.3,4,9.3,8.9
							C641,1245.1,636.9,1249.1,631.8,1249.1z"/>
						<path class="st5" d="M631.8,1406.6c11,0,20.7-5.9,25.6-14.6h-51.3C611.1,1400.7,620.7,1406.6,631.8,1406.6z"/>
						<linearGradient id="SVGID_76_" gradientUnits="userSpaceOnUse" x1="631.7579" y1="1392.1533" x2="631.7579" y2="1403.1237">
							<stop  offset="0" style="stop-color:#5E5E5E"/>
							<stop  offset="1" style="stop-color:#FFFFFF"/>
						</linearGradient>
						<path class="st92" d="M631.8,1406.6c11,0,20.7-5.9,25.6-14.6h-51.3C611.1,1400.7,620.7,1406.6,631.8,1406.6z"/>
					</g>
					<g class="st76">
						<path class="st5" d="M752.6,1352.9c0,3.6,2.9,6.5,6.5,6.5h130.1c3.6,0,6.5-2.9,6.5-6.5v-3.3c0-3.6-2.9-6.5-6.5-6.5H759.1
							c-3.6,0-6.5,2.9-6.5,6.5V1352.9z M752.6,1380.6c0,3.6,2.9,6.5,6.5,6.5h130.1c3.6,0,6.5-2.9,6.5-6.5v-3.3
							c0-3.6-2.9-6.5-6.5-6.5H759.1c-3.6,0-6.5,2.9-6.5,6.5V1380.6z M752.6,1436c0,3.6,2.9,6.5,6.5,6.5h75.5c3.6,0,6.5-2.9,6.5-6.5
							v-3.3c0-3.6-2.9-6.5-6.5-6.5h-75.5c-3.6,0-6.5,2.9-6.5,6.5V1436z M752.6,1408.3c0,3.6,2.9,6.5,6.5,6.5h130.1
							c3.6,0,6.5-2.9,6.5-6.5v-3.3c0-3.6-2.9-6.5-6.5-6.5H759.1c-3.6,0-6.5,2.9-6.5,6.5V1408.3z M752.6,1325.2
							c0,3.6,2.9,6.5,6.5,6.5h130.1c3.6,0,6.5-2.9,6.5-6.5v-3.3c0-3.6-2.9-6.5-6.5-6.5H759.1c-3.6,0-6.5,2.9-6.5,6.5V1325.2z
							 M752.6,1242c0,3.6,2.9,6.5,6.5,6.5h130.1c3.6,0,6.5-2.9,6.5-6.5v-3.3c0-3.6-2.9-6.5-6.5-6.5H759.1c-3.6,0-6.5,2.9-6.5,6.5
							V1242z M752.6,1297.5c0,3.6,2.9,6.5,6.5,6.5h130.1c3.6,0,6.5-2.9,6.5-6.5v-3.3c0-3.6-2.9-6.5-6.5-6.5H759.1
							c-3.6,0-6.5,2.9-6.5,6.5V1297.5z M820.8,1204.5c-3.6,0-6.5,2.9-6.5,6.5v3.3c0,3.6,2.9,6.5,6.5,6.5h68.4c3.6,0,6.5-2.9,6.5-6.5
							v-3.3c0-3.6-2.9-6.5-6.5-6.5H820.8z M752.6,1269.8c0,3.6,2.9,6.5,6.5,6.5h130.1c3.6,0,6.5-2.9,6.5-6.5v-3.3
							c0-3.6-2.9-6.5-6.5-6.5H759.1c-3.6,0-6.5,2.9-6.5,6.5V1269.8z"/>
					</g>
					<path class="st77" d="M904.1,1384.6c0,4.8,3,6.2,6.7,3.2l71-58.7c3.7-3.1,3.7-8,0-11.1l-71-58.7c-3.7-3.1-6.7-1.6-6.7,3.2
						V1384.6z"/>
				</g>
			</g>
			<g>
				<path class="st2" d="M625.2,1843.4h14.9c-10.7-9.4-80.9-73.2-68.3-125.4c8.1-33.4,29.8-34.5,55.1-35.7
					c21.1-1,44.9-2.2,57.5-26.4c6.5-12.6,6.2-28,5.9-44.3c-0.6-30.6-1.1-59.6,43.2-69.7c3.7-0.9,7.3-1.3,10.7-1.3
					c21.8,0,34.1,17.9,47.1,36.9c12.9,18.7,26.1,38.1,49.5,38.1l6.7,0c40.8,0,52,1.2,63.3,29.5c4.4,11.1,0.5,24.8-3.3,38
					c-3.8,13.2-7.4,25.7-1.6,34.7c3.3,5.2,9.1,8.3,17.7,9.5c7.8,1.1,11.3,7.9,12.9,13.4c6.7,24.2-8.4,68.1-49.6,102.7H902
					c37.9-36,51.4-80,44.3-105.4c-3.3-11.8-10.8-19.2-21.1-20.7c-5.5-0.8-9.1-2.4-10.7-5c-3.3-5.2-0.4-15.5,2.8-26.5
					c4.1-14.2,8.7-30.3,3-44.5c-14.4-35.7-32.6-35.7-72.6-35.7h-6.7c-18.1,0-29.4-16.4-41.3-33.8c-13.3-19.3-28.3-41.2-55.4-41.2
					c-4.1,0-8.5,0.5-12.9,1.5c-52.3,12-51.6,49.5-51,79.7c0.3,15,0.6,29.2-4.8,39.5c-9.9,19.1-28.1,20-49.1,21.1
					c-25.5,1.2-54.5,2.7-64.3,43.3C550,1765.9,602.6,1822,625.2,1843.4z"/>
				<path class="st31" d="M936.7,1740.7c-1.5-5.5-5-12.3-12.9-13.4c-8.6-1.2-14.4-4.4-17.7-9.5c-5.8-9-2.2-21.5,1.6-34.7
					c3.8-13.2,7.7-26.9,3.3-38c-11.4-28.3-22.5-29.5-63.3-29.5l-6.7,0c-23.4,0-36.7-19.4-49.5-38.1c-13-19-25.3-36.9-47.1-36.9
					c-3.4,0-7,0.4-10.7,1.3c-44.4,10.2-43.8,39.1-43.2,69.7c0.3,16.3,0.6,31.7-5.9,44.3c-12.6,24.3-36.5,25.4-57.5,26.4
					c-25.2,1.2-47,2.3-55.1,35.7c-12.6,52.2,57.6,116,68.3,125.4h246.9C928.3,1808.8,943.4,1764.9,936.7,1740.7z"/>
				<path class="st2" d="M937.6,1745.1c-34.1,47.2-78.2,78.9-111.7,98.2h12.7c31-19,68.6-47.7,99.4-88
					C938.3,1751.8,938.1,1748.3,937.6,1745.1z M911.5,1646.8c-0.2-0.6-0.3-1.2-0.5-1.7c-1-2.4-1.9-4.6-2.9-6.6
					c-29.7,69.6-107.2,118-126.4,129.2c-2.4-39.3-7.7-77.1-13.9-111c20-15.5,33.3-43.8,39.1-58.5c-1.6-1.8-3.2-3.8-4.8-5.7
					c-4.6,11.9-16.9,40.7-35.7,56.9c-9-47-19.6-85.6-26.5-108.5c-2.1,0.2-4.2,0.5-6.3,1c-0.1,0-0.1,0-0.2,0
					c8.8,29,24.1,84.9,33.9,151.2c-42.3-7.8-74.3-25.5-85.7-32.4c-1.3,1.9-2.6,3.6-4.1,5.2c11.4,7.1,45,26.1,90.8,34
					c4.8,34.3,8.1,71.1,8.3,108.4c-123.2-26-186.1-87-200.5-102.6c-1,2-1.9,4.2-2.7,6.7c18.4,19.2,82.6,77.6,203.1,102.6
					c-0.1,9.5-0.3,18.9-0.8,28.4h6.6c1.2-22.9,1-45.8-0.2-68.4C794.8,1767.8,877.5,1719.2,911.5,1646.8z"/>
			</g>
		</g>
	</g>
</g>
</svg>
