<svg id="PATTERN" xmlns="http://www.w3.org/2000/svg" xmlns:xlink="http://www.w3.org/1999/xlink" viewBox="0 0 250 250"><defs><style>.cls-1,.cls-2{fill:none;}.cls-2{stroke:#fff;stroke-miterlimit:10;stroke-width:2px;}.cls-3{fill:url(#New_Pattern_Swatch_4);}</style><pattern id="New_Pattern_Swatch_4" data-name="New Pattern Swatch 4" x="-0.41" y="-0.67" width="77" height="76" patternUnits="userSpaceOnUse" viewBox="0 0 77 76"><rect class="cls-1" width="77" height="76"/><polygon class="cls-2" points="99.13 70.07 93.2 76 99.13 81.93 99.13 98.13 83.41 98.13 77 91.72 70.59 98.13 54.87 98.13 54.87 81.93 60.79 76 54.87 70.07 54.87 53.87 70.59 53.87 77 60.28 83.41 53.87 99.13 53.87 99.13 70.07"/><polygon class="cls-2" points="93.2 75.88 88.42 66.72 83.35 66.72 77 60.37 70.64 66.72 65.58 66.72 60.8 75.88 65.58 85.03 70.64 85.03 77 91.39 83.35 85.03 88.42 85.03 93.2 75.88"/><polygon class="cls-2" points="22.13 70.07 16.2 76 22.13 81.93 22.13 98.13 6.41 98.13 0 91.72 -6.41 98.13 -22.13 98.13 -22.13 81.93 -16.21 76 -22.13 70.07 -22.13 53.87 -6.41 53.87 0 60.28 6.41 53.87 22.13 53.87 22.13 70.07"/><polygon class="cls-2" points="16.2 75.88 11.42 66.72 6.35 66.72 0 60.37 -6.36 66.72 -11.42 66.72 -16.2 75.88 -11.42 85.03 -6.36 85.03 0 91.39 6.35 85.03 11.42 85.03 16.2 75.88"/><circle class="cls-2" cx="38.46" cy="75.93" r="1.92"/><polygon class="cls-2" points="60.63 32.07 54.7 38 60.63 43.93 60.63 60.13 44.91 60.13 38.5 53.72 32.09 60.13 16.37 60.13 16.37 43.93 22.29 38 16.37 32.07 16.37 15.87 32.09 15.87 38.5 22.28 44.91 15.87 60.63 15.87 60.63 32.07"/><polygon class="cls-2" points="54.7 37.88 49.92 28.72 44.85 28.72 38.5 22.37 32.14 28.72 27.08 28.72 22.3 37.88 27.08 47.03 32.14 47.03 38.5 53.39 44.85 47.03 49.92 47.03 54.7 37.88"/><circle class="cls-2" cx="76.96" cy="37.93" r="1.92"/><circle class="cls-2" cx="-0.04" cy="37.93" r="1.92"/><polygon class="cls-2" points="99.13 -5.93 93.2 0 99.13 5.93 99.13 22.13 83.41 22.13 77 15.72 70.59 22.13 54.87 22.13 54.87 5.93 60.79 0 54.87 -5.93 54.87 -22.13 70.59 -22.13 77 -15.72 83.41 -22.13 99.13 -22.13 99.13 -5.93"/><polygon class="cls-2" points="93.2 -0.12 88.42 -9.28 83.35 -9.28 77 -15.63 70.64 -9.28 65.58 -9.28 60.8 -0.12 65.58 9.03 70.64 9.03 77 15.39 83.35 9.03 88.42 9.03 93.2 -0.12"/><polygon class="cls-2" points="22.13 -5.93 16.2 0 22.13 5.93 22.13 22.13 6.41 22.13 0 15.72 -6.41 22.13 -22.13 22.13 -22.13 5.93 -16.21 0 -22.13 -5.93 -22.13 -22.13 -6.41 -22.13 0 -15.72 6.41 -22.13 22.13 -22.13 22.13 -5.93"/><polygon class="cls-2" points="16.2 -0.12 11.42 -9.28 6.35 -9.28 0 -15.63 -6.36 -9.28 -11.42 -9.28 -16.2 -0.12 -11.42 9.03 -6.36 9.03 0 15.39 6.35 9.03 11.42 9.03 16.2 -0.12"/><circle class="cls-2" cx="38.46" cy="-0.07" r="1.92"/></pattern></defs><title>pattern-1</title><rect class="cls-3" width="250" height="250"/></svg>